<?xml version="1.0" standalone="no"?>
<!DOCTYPE svg PUBLIC "-//W3C//DTD SVG 1.1//EN" "http://www.w3.org/Graphics/SVG/1.1/DTD/svg11.dtd" >
<svg xmlns="http://www.w3.org/2000/svg">
<metadata>
This is a custom SVG webfont generated by Font Squirrel.
Copyright   : Font software Copyright 1990 Adobe Systems Incorporated Typeface designs Copyright 1990 The Monotype Corporation All rights reserved
Foundry     : Agfa Monotype Corporation
Foundry URL : httpwwwagfamonotypecom
</metadata>
<defs>
<font id="webfont8VEldXrD" horiz-adv-x="1024" >
<font-face units-per-em="2048" ascent="1638" descent="-410" />
<missing-glyph horiz-adv-x="512" />
<glyph unicode="&#xfb01;" d="M846 958v-815q0 -51 10 -64t59 -13h43v-66h-348v66h37q61 0 75.5 16t14.5 84v592q0 86 -14 102.5t-94 16.5h-346v-730q0 -57 11 -69t66 -12h56v-66h-369v66h31q63 0 76.5 14t13.5 90v707h-121v81h121v50q0 176 51 260q47 80 133 123t187 43q150 0 270 -72v-193h-94v50 q0 27 -3 44t-17.5 44.5t-52.5 42t-97 14.5q-72 0 -124 -25.5t-78 -59.5t-40 -87t-17 -89t-3 -83v-62h563z" />
<glyph unicode="&#xfb02;" horiz-adv-x="1067" d="M887 1434v-1274q0 -61 11 -77.5t65 -16.5h38v-66h-342v66h48q49 0 60 18t11 80v713h-489v-697q0 -86 11 -100t77 -14h41v-66h-371v66h37q66 0 80 15t14 91v705h-131v81h131q-4 213 49 306q41 72 127 121t209 49q111 0 195 -33zM289 958h489v179q0 39 -2 60.5t-13 59 t-33.5 58t-68 37t-110.5 16.5q-53 0 -96 -15.5t-71 -37t-47.5 -57t-27.5 -63.5t-13 -69t-6 -61.5t-1 -50.5v-56z" />
<glyph d="M25 0v1362h972v-1362h-972zM180 1266l332 -498l330 498h-662zM123 1178v-992l82 125l164 246l84 125zM901 1178l-332 -496l332 -498v994zM842 98l-330 496l-332 -496h662z" />
<glyph d="M25 0v1362h972v-1362h-972zM180 1266l332 -498l330 498h-662zM123 1178v-992l82 125l164 246l84 125zM901 1178l-332 -496l332 -498v994zM842 98l-330 496l-332 -496h662z" />
<glyph unicode=" "  horiz-adv-x="512" />
<glyph unicode="&#x09;" horiz-adv-x="512" />
<glyph unicode="&#xa0;" horiz-adv-x="512" />
<glyph unicode="!" horiz-adv-x="425" d="M152 1405h118v-121l-16 -983h-86l-16 983v121zM213 150q37 0 63.5 -26t26.5 -62.5t-26.5 -63.5t-63.5 -27t-63.5 27t-26.5 63.5t26.5 62.5t63.5 26z" />
<glyph unicode="&#x22;" horiz-adv-x="598" d="M201 864h-92l-29 344q-4 25 -4 72q0 41 20.5 62.5t34.5 24.5t27 3q31 0 56.5 -22.5t25.5 -67.5q0 -8 -2 -30.5t-2 -28.5zM483 864h-92l-29 344q0 6 -2 34t-2 38q0 41 21.5 62.5t36 24.5t26.5 3q31 0 55.5 -21.5t24.5 -68.5q0 -35 -4 -59z" />
<glyph unicode="#" horiz-adv-x="1366" d="M92 971h330l88 409h102l-86 -409h439l86 409h104l-86 -409h205v-105h-225l-82 -389h307v-104h-328l-86 -410h-104l86 410h-441l-84 -410h-106l86 410h-205v104h227l82 389h-309v105zM944 866h-440l-82 -387h442z" />
<glyph unicode="$" horiz-adv-x="1044" d="M872 1241v-235h-88v57q0 31 -6 52.5t-24.5 46t-61.5 42t-108 27.5v-514q70 -33 103.5 -50.5t87.5 -54.5t80 -71.5t46.5 -90t20.5 -122.5q0 -141 -85 -240.5t-259 -122.5v-188h-103v188q-231 18 -356 74v280h100q2 -63 8 -96t29 -75t77 -64.5t142 -30.5v578 q-72 37 -104.5 55.5t-85 55t-76 69.5t-43 82t-19.5 108q0 270 334 320v86h103v-86q173 -14 288 -80zM481 768v465q-104 -8 -159.5 -69.5t-55.5 -139.5q0 -51 18.5 -93t57.5 -74t64.5 -48t74.5 -41zM578 582v-529q86 12 141 62.5t70.5 96.5t15.5 91q0 72 -36 127t-73.5 81 t-117.5 71z" />
<glyph unicode="%" horiz-adv-x="1622" d="M154 1063q0 -70 5 -121t20.5 -103.5t49 -80t85 -27.5t85 26.5t48 78t19.5 101.5t5 124q0 309 -156 309q-161 0 -161 -307zM324 1434q254 0 254 -375q0 -391 -271 -391q-256 0 -256 374q0 72 7.5 126.5t32 122t84 105.5t149.5 38zM1212 1434h91l-891 -1471h-93zM1317 752 q254 0 254 -375q0 -391 -271 -391q-256 0 -256 374q0 72 7.5 126.5t32 122t84 105.5t149.5 38zM1147 381q0 -70 5 -121t20.5 -103.5t49 -80t85 -27.5t85 26.5t48 78t19.5 101.5t5 124q0 309 -155 309q-162 0 -162 -307z" />
<glyph unicode="&#x26;" horiz-adv-x="1429" d="M924 758h401v-70h-51q-45 0 -65.5 -14.5t-30.5 -57.5q-2 -6 -10.5 -46t-10.5 -46l-6 -18q-4 -18 -10 -36.5t-17.5 -48.5t-25 -57.5t-32.5 -62.5t-42 -65l29 -31q51 -57 74.5 -80t60.5 -42.5t78 -19.5q29 0 59 13v-92q-57 -20 -106 -21q-78 0 -140.5 43t-130.5 131 q-174 -174 -395 -174q-186 0 -313 107.5t-127 285.5q0 270 325 420q-82 109 -116.5 176.5t-34.5 145.5q0 113 83 200.5t236 87.5q139 0 220 -75.5t81 -192.5q0 -229 -303 -352l352 -451q104 176 105 297q0 49 -23.5 62.5t-81.5 13.5h-32v70zM545 831q141 74 194.5 138.5 t53.5 146.5q0 90 -58.5 138.5t-138.5 48.5q-82 0 -137.5 -52.5t-55.5 -132.5q0 -49 20.5 -98t88.5 -141q6 -10 20 -29zM887 215l-393 490q-250 -133 -250 -330q0 -111 86 -207t227 -96q193 0 330 143z" />
<glyph unicode="'" horiz-adv-x="448" d="M268 864h-92l-29 344q-4 25 -4 72q0 41 20.5 62.5t35 24.5t26.5 3q31 0 56.5 -22.5t25.5 -67.5q0 -8 -2 -30.5t-2 -28.5z" />
<glyph unicode="(" horiz-adv-x="575" d="M403 1434h111q-96 -162 -158.5 -312.5t-85 -278.5t-27.5 -195.5t-5 -158.5q0 -137 12 -245.5t77.5 -299t186.5 -388.5h-111q-297 426 -297 923q0 502 297 955z" />
<glyph unicode=")" horiz-adv-x="575" d="M172 -444h-111q96 162 159 312t85.5 278t27.5 196t5 158q0 137 -12.5 245.5t-78 299t-186.5 389.5h111q297 -426 297 -924q0 -501 -297 -954z" />
<glyph unicode="*" horiz-adv-x="980" d="M63 1081l33 99l60 -17l293 -110l-13 319v62h107v-62l-17 -319l303 108l58 19l31 -99l-58 -18l-307 -84l182 -231l35 -52l-84 -61l-35 49l-159 248l-205 -297l-84 59l37 51l190 234l-311 84z" />
<glyph unicode="+" horiz-adv-x="1366" d="M145 713h484v483h108v-483h484v-109h-484v-483h-108v483h-484v109z" />
<glyph unicode="," horiz-adv-x="425" d="M106 -236v54q35 14 55.5 25.5t47.5 49t31 91.5q-63 -8 -90 24.5t-27 67.5q0 41 25.5 65.5t62.5 24.5q49 0 78.5 -41t29.5 -102q0 -80 -51 -155t-162 -104z" />
<glyph unicode="-" horiz-adv-x="641" d="M70 530h501v-114h-501v114z" />
<glyph unicode="." horiz-adv-x="425" d="M213 152q37 0 63.5 -27t26.5 -63.5t-26.5 -63.5t-63.5 -27t-63.5 27t-26.5 63.5t26.5 63.5t63.5 27z" />
<glyph unicode="/" horiz-adv-x="1044" d="M821 1399h111l-709 -1462h-110z" />
<glyph unicode="0" d="M109 672q0 698 409 698q397 0 397 -686q0 -713 -409 -713q-397 1 -397 701zM233 635q0 -569 275 -569q57 0 102 24.5t75 60t50.5 96t29.5 107.5t14 122t6 114t1 104q0 51 -1 84t-6 100.5t-14 114.5t-29.5 105.5t-49.5 93.5t-74 60.5t-102 25.5q-86 0 -144.5 -54.5 t-85 -154.5t-37 -200.5t-10.5 -233.5z" />
<glyph unicode="1" d="M551 1370h63v-1206q0 -49 20.5 -66.5t74.5 -17.5h96v-80h-498v80h99q68 0 82 19.5t14 86.5v852q0 57 -15.5 70.5t-80.5 7.5l-127 -10v72q96 14 160.5 54t111.5 138z" />
<glyph unicode="2" d="M156 1010v213q152 147 338 147q154 0 251 -92t97 -260q0 -133 -61.5 -248t-227.5 -326q-176 -225 -274 -327h391q88 0 106.5 14t18.5 84v74h92v-289h-762v88l114 128q101 114 119 136q205 254 285 397.5t80 274.5q0 106 -65.5 181t-174.5 75q-68 0 -129 -26.5t-84 -65.5 q-27 -45 -26 -113v-65h-88z" />
<glyph unicode="3" d="M176 1034v228q160 109 316 108q145 0 250.5 -78t105.5 -243q0 -119 -61.5 -201t-165.5 -121v-4q78 -20 131 -62.5t77.5 -95.5t33.5 -95t9 -83q0 -164 -110.5 -290t-321.5 -126q-160 0 -301 97v245h90v-80q0 -88 62.5 -126.5t154.5 -38.5q137 0 219.5 86t82.5 219t-80 212 t-297 81v106q174 -8 268 70t94 200q0 106 -66.5 174t-174.5 68q-225 0 -226 -190v-60h-90z" />
<glyph unicode="4" d="M686 1370h92v-938h158v-90h-158v-172q0 -37 2 -54.5t14.5 -32.5t39.5 -15l45 -5h43v-63h-430v63h83q63 0 79 12.5t16 74.5v192h-570v119zM666 1171l-478 -739h482v739h-4z" />
<glyph unicode="5" d="M223 1343h619v-104h-525l-22 -399q96 68 211 67q104 0 182 -43t117 -111.5t57.5 -139t18.5 -144.5q0 -59 -11.5 -120.5t-42 -131.5t-76.5 -122t-123 -87t-175 -35q-154 0 -287 93v262h96v-62q0 -49 3 -74.5t19.5 -61.5t56.5 -52.5t105 -16.5q84 0 145.5 35t93.5 81 t50.5 107.5t22.5 98.5t4 68q0 59 -12.5 116.5t-41 114.5t-87 92t-140.5 35q-133 0 -207 -107h-81z" />
<glyph unicode="6" d="M881 1300v-229h-95v59q0 63 -10 84q-33 72 -164 72q-104 0 -179 -55t-114.5 -147.5t-58 -177.5t-24.5 -181l4 -4q123 164 319 164q68 0 130.5 -21.5t119.5 -70t91 -137.5t34 -210q0 -236 -121 -354.5t-303 -118.5q-410 0 -410 600q0 436 183 654q119 143 338 143 q125 0 260 -70zM807 438q0 63 -12.5 118.5t-41 109t-85 85t-133.5 31.5q-49 0 -97.5 -16t-97.5 -52t-79 -107.5t-30 -172.5q0 -166 77 -269.5t210 -103.5q135 0 212 102.5t77 274.5z" />
<glyph unicode="7" d="M154 1343h770v-108q-160 -201 -299.5 -533.5t-145.5 -711.5h-108q0 279 103.5 601t328.5 644h-498q-39 0 -51 -9t-12 -44v-109h-88v270z" />
<glyph unicode="8" d="M698 707q39 -16 64.5 -32t68.5 -53.5t66 -101t23 -149.5q0 -162 -104.5 -281t-307.5 -119t-303.5 115t-100.5 270q0 211 156 312q31 20 70 34q-49 31 -82 56.5t-70 95.5t-37 158q0 150 97.5 254t283.5 104q168 0 266.5 -94t98.5 -250q-1 -225 -189 -319zM260 1010 q0 -106 67.5 -181t182.5 -75q109 0 182.5 66.5t73.5 197.5q0 123 -69.5 193.5t-178 70.5t-183.5 -68.5t-75 -203.5zM516 653q-131 0 -205.5 -82t-74.5 -211q0 -121 69.5 -205.5t206.5 -84.5q139 0 209 80.5t70 224.5q0 137 -80 207.5t-195 70.5z" />
<glyph unicode="9" d="M143 43v229h95v-61q0 -61 10 -84q33 -70 164 -70q104 0 180 55.5t114.5 147.5t57 177t24.5 181l-4 5q-123 -164 -319 -164q-150 0 -262.5 103.5t-112.5 332.5q0 236 121 355.5t303 119.5q410 0 410 -600q0 -436 -183 -655q-119 -141 -335 -142q-128 0 -263 70zM217 903 q0 -61 12.5 -117.5t41 -109.5t85 -85t133.5 -32q49 0 98.5 16.5t97.5 52.5t78 108.5t30 172.5q0 166 -76 268.5t-211 102.5q-137 0 -213 -102.5t-76 -274.5z" />
<glyph unicode=":" horiz-adv-x="425" d="M213 152q37 0 63.5 -27t26.5 -63.5t-26.5 -63.5t-63.5 -27t-63.5 27t-26.5 63.5t26.5 63.5t63.5 27zM213 985q37 0 63.5 -26.5t26.5 -63.5t-26.5 -63.5t-63.5 -26.5t-63.5 26.5t-26.5 63.5t26.5 63.5t63.5 26.5z" />
<glyph unicode=";" horiz-adv-x="425" d="M106 -236v54q35 14 55.5 25.5t47.5 49t31 91.5q-63 -8 -90 24.5t-27 67.5q0 41 25.5 65.5t62.5 24.5q49 0 78.5 -41t29.5 -102q0 -80 -51 -155t-162 -104zM213 985q37 0 63.5 -26.5t26.5 -63.5t-26.5 -63.5t-63.5 -26.5t-63.5 26.5t-26.5 63.5t26.5 63.5t63.5 26.5z" />
<glyph unicode="&#x37e;" horiz-adv-x="425" d="M106 -236v54q35 14 55.5 25.5t47.5 49t31 91.5q-63 -8 -90 24.5t-27 67.5q0 41 25.5 65.5t62.5 24.5q49 0 78.5 -41t29.5 -102q0 -80 -51 -155t-162 -104zM213 985q37 0 63.5 -26.5t26.5 -63.5t-26.5 -63.5t-63.5 -26.5t-63.5 26.5t-26.5 63.5t26.5 63.5t63.5 26.5z" />
<glyph unicode="&#x3c;" horiz-adv-x="1366" d="M1223 156l-1080 456v97l1080 454v-116l-936 -388l936 -387v-116z" />
<glyph unicode="=" horiz-adv-x="1366" d="M143 950h1080v-108h-1080v108zM143 483h1080v-108h-1080v108z" />
<glyph unicode="&#x3e;" horiz-adv-x="1366" d="M143 1163l1080 -456v-97l-1080 -454v116l934 385l-934 387v119z" />
<glyph unicode="?" horiz-adv-x="831" d="M66 1079v238q168 117 348 117q145 0 249.5 -85t104.5 -243q0 -102 -39 -174t-160 -221q-102 -127 -130.5 -210t-35.5 -202h-90q0 131 31 227.5t117 212.5q82 111 112.5 156t52 101.5t21.5 117.5q0 84 -60.5 158t-193.5 74q-233 0 -233 -224v-43h-94zM358.5 147 q36.5 0 62 -25.5t25.5 -62t-25.5 -62.5t-62 -26t-62.5 27t-26 61q0 37 26 62.5t62.5 25.5z" />
<glyph unicode="@" horiz-adv-x="1642" d="M1145 1014h125l-170 -803l-4 -29q-8 -39 -9 -51q0 -41 50 -41q119 0 255 165t136 413q0 61 -10.5 128.5t-52.5 165t-108.5 171t-195.5 127t-299 53.5q-356 0 -568 -232.5t-212 -568.5t211 -557t577 -221q121 0 226.5 25.5t171 56t129 83t87 78t58.5 70.5h103 q-258 -393 -775 -393q-397 0 -634.5 238.5t-237.5 621.5q0 170 54 324.5t157.5 280.5t274.5 201t384 75q170 0 305.5 -51.5t215 -129t132 -179t72 -191.5t19.5 -176q0 -154 -53.5 -286t-133 -212t-167 -125t-162.5 -45q-121 0 -121 106q0 31 8 74l-4 4q-152 -184 -338 -184 q-152 0 -249 122t-97 300q0 150 62.5 290t182 233t265.5 93q201 0 305 -192zM1063 666q0 127 -72.5 205.5t-183.5 78.5q-92 0 -169 -55t-122 -139t-69.5 -173t-24.5 -167q0 -133 69.5 -227.5t186.5 -94.5q109 0 200 98.5t138 228.5t47 245z" />
<glyph unicode="A" horiz-adv-x="1366" d="M627 1417h112l428 -1216q29 -84 54.5 -106.5t81.5 -22.5h43v-72h-414v72h51q29 0 42 2t24.5 11t11.5 28q0 10 -4 27.5t-10.5 35t-6.5 19.5l-96 272h-551l-98 -283q-14 -43 -14 -57q0 -55 81 -55h52v-72h-394v72h35q59 0 83 19.5t59 115.5zM911 555l-239 702h-4l-242 -702 h485z" />
<glyph unicode="B" horiz-adv-x="1259" d="M104 1327v72h441q227 0 317 -37q100 -39 151.5 -123t51.5 -184q0 -51 -12.5 -100.5t-60.5 -110t-126 -90.5v-4q291 -57 291 -355q0 -133 -65.5 -226t-178.5 -136q-84 -33 -274 -33h-535v72h39q74 0 85.5 16t11.5 115v1030q0 63 -15.5 78.5t-74.5 15.5h-46zM365 1309v-535 h204q367 0 367 277q0 258 -324 258h-247zM365 684v-594h307q76 0 133 12.5t110.5 43t82 91t28.5 150.5q0 84 -30.5 144.5t-69.5 89t-104.5 44t-102.5 17.5t-98 2h-256z" />
<glyph unicode="C" horiz-adv-x="1343" d="M1241 1319v-283h-108q-2 131 -9 154q-20 76 -126.5 110.5t-213.5 34.5q-250 0 -393 -171t-143 -470q0 -170 48 -296t128 -193.5t168 -99t184 -31.5q82 0 157 17.5t139.5 51t93 52t75.5 53.5v-125q-63 -45 -110.5 -71.5t-148.5 -57.5t-212 -31q-174 0 -306 63.5t-207 169 t-111.5 228.5t-36.5 258q0 319 183 535.5t501 216.5q241 0 448 -115z" />
<glyph unicode="D" horiz-adv-x="1472" d="M94 1399h578q117 0 193.5 -9.5t175 -53.5t169.5 -128q156 -180 156 -508q0 -127 -30.5 -241.5t-99.5 -222t-202 -172t-315 -64.5h-625v72h49q63 0 76.5 19.5t13.5 96.5v1037q0 59 -15 80.5t-83 21.5h-41v72zM641 1307h-283v-1219h324q203 0 315 68q98 59 155.5 177 t69 203t11.5 169q0 299 -162 469q-76 78 -169 105.5t-261 27.5z" />
<glyph unicode="E" horiz-adv-x="1216" d="M102 1399h1004v-295h-92v115q0 59 -23.5 73.5t-111.5 14.5h-514v-543h407q74 0 95.5 18.5t21.5 85.5v41h76v-385h-76v62q0 59 -24.5 74.5t-106.5 15.5h-393v-588h585q59 0 73.5 21.5t14.5 83.5v88h92v-281h-1028v72h50q61 0 74.5 20.5t13.5 77.5v1069q0 35 -3.5 49.5 t-22.5 26.5t-62 12h-50v72z" />
<glyph unicode="F" horiz-adv-x="1173" d="M102 1399h1014v-293h-90v90q0 74 -20.5 91.5t-100.5 17.5h-538v-535h378q86 0 102.5 22.5t16.5 120.5h76v-385h-76v50q0 68 -21.5 85t-111.5 17h-364v-502q0 -72 14 -89t80 -17h59v-72h-418v72h45q68 0 81.5 21.5t13.5 105.5v1026q0 66 -16.5 84t-86.5 18h-37v72z" />
<glyph unicode="G" horiz-adv-x="1429" d="M961 651h430v-69h-58q-66 0 -78 -18.5t-12 -96.5v-361q-211 -143 -477 -143q-311 0 -487.5 208t-176.5 523q0 328 191.5 534t515.5 206q244 0 436 -109v-293h-104v66q0 106 -35 145q-82 90 -309 90q-131 0 -233.5 -43t-161 -108.5t-96.5 -153.5t-51 -166t-13 -157 q0 -276 133 -457.5t401 -181.5q154 0 336 79v306q0 88 -14.5 109.5t-87.5 21.5h-49v69z" />
<glyph unicode="H" horiz-adv-x="1515" d="M92 1399h404v-72h-43q-63 0 -80 -19.5t-17 -78.5v-441h803v441q0 70 -15.5 84t-86.5 14h-37v72h403v-72h-49q-29 0 -43 -2t-30.5 -17.5t-16.5 -43.5v-1092q0 -63 13.5 -81.5t76.5 -18.5h49v-72h-403v72h37q76 0 89 17t13 101v510h-803v-528q0 -31 2 -45t10.5 -29.5 t29 -20.5t55.5 -5h43v-72h-404v72h53q55 0 70.5 16t15.5 78v1063q0 61 -14 79.5t-82 18.5h-43v72z" />
<glyph unicode="I" horiz-adv-x="661" d="M129 1399h403v-72h-32q-76 0 -91.5 -20.5t-15.5 -102.5v-1005q0 -88 14.5 -107.5t92.5 -19.5h32v-72h-403v72h41q72 0 85 17t13 95v1037q0 70 -14 88t-84 18h-41v72z" />
<glyph unicode="J" horiz-adv-x="937" d="M461 1399h411v-72h-47q-66 0 -79 -18.5t-13 -85.5v-834q0 -426 -395 -426q-145 0 -275 72v246h97v-74q0 -88 50 -122t144 -34q158 0 206 91t48 292v789q0 70 -14 87t-90 17h-43v72z" />
<glyph unicode="K" horiz-adv-x="1280" d="M100 1399h400v-72h-43q-68 0 -82.5 -18.5t-14.5 -83.5v-488l494 492q6 6 10 8q39 39 39 59q0 31 -78 31v72h408v-72h-33q-55 0 -101 -17.5t-67.5 -36t-52.5 -48.5l-475 -475l540 -547q61 -61 111.5 -92t76 -35t73.5 -4v-72h-451v72h39q53 0 53 34q0 18 -31 52l-555 561 v-529q0 -82 14.5 -100t90.5 -18h43v-72h-408v72h54q41 0 59 12t20.5 25.5t2.5 48.5v1093q0 43 -15.5 59.5t-66.5 16.5h-54v72z" />
<glyph unicode="L" horiz-adv-x="1153" d="M102 1399h422v-72h-51q-78 0 -92 -17.5t-14 -97.5v-1126h551q53 0 69.5 17.5t16.5 84.5v113h96v-301h-998v72h43q66 0 81.5 19.5t15.5 88.5v1055q0 55 -16.5 73.5t-80.5 18.5h-43v72z" />
<glyph unicode="M" horiz-adv-x="1771" d="M96 1399h336l457 -1288h4l461 1288h321v-72h-41q-68 0 -83 -18.5t-15 -89.5v-1049q0 -59 16.5 -78.5t81.5 -19.5h41v-72h-395v72h39q74 0 87 17t13 106v1132h-4l-471 -1327h-139l-469 1319h-8v-1145q0 -63 14 -82.5t84 -19.5h41v-72h-371v72h47q61 0 73.5 19.5t12.5 92.5 v1035q0 76 -12 90q-16 18 -74 18h-47v72z" />
<glyph unicode="N" horiz-adv-x="1449" d="M92 1399h334l725 -1225h4v1045q0 72 -16.5 90t-89.5 18h-35v72h377v-72h-39q-68 0 -83.5 -20.5t-15.5 -87.5v-1237h-133l-788 1323h-4v-1125q0 -70 14 -89t84 -19h41v-72h-375v72h55q59 0 70.5 20.5t11.5 97.5v1045q0 61 -14 76.5t-78 15.5h-45v72z" />
<glyph unicode="O" horiz-adv-x="1536" d="M106 694q0 344 189.5 542t474.5 198q305 0 482.5 -203t177.5 -524q0 -319 -183.5 -531.5t-488.5 -212.5q-123 0 -234.5 42t-207 126t-153 229.5t-57.5 333.5zM246 696q0 -307 135 -460q143 -168 389 -168q229 0 373.5 165.5t144.5 487.5q0 293 -141 451.5t-377 158.5 q-242 0 -383 -162q-141 -160 -141 -473z" />
<glyph unicode="P" horiz-adv-x="1193" d="M100 1327v72h545q55 0 93 -2t111 -21.5t119 -54.5t82.5 -108.5t36.5 -176.5q0 -100 -41.5 -188t-119.5 -137q-104 -63 -295 -64h-271v-485q0 -63 21.5 -76.5t97.5 -13.5h37v-72h-416v72h35q74 0 87.5 15t13.5 89v1055q0 37 -1.5 46t-9.5 26.5t-29.5 20.5t-60.5 3h-35z M360 1309v-572h218q43 0 69.5 2t78.5 8.5t87 26t72 48t55 80.5t18 120q0 82 -26.5 139.5t-60 85t-88 43t-83 17.5t-71.5 2h-269z" />
<glyph unicode="Q" horiz-adv-x="1536" d="M1354 -190v-84q-49 -4 -72 -5q-242 0 -408.5 76t-252.5 178q-92 18 -176.5 64.5t-164 127.5t-127 216t-47.5 307q0 348 190.5 546t473.5 198q305 0 482.5 -203t177.5 -524q0 -289 -155 -497t-435 -239v-4q4 0 4 -4q53 -53 114.5 -86t136 -46t125 -17t134.5 -4zM246 696 q0 -307 135 -460q143 -168 389 -168q229 0 373.5 165.5t144.5 487.5q0 293 -141 451.5t-377 158.5q-242 0 -383 -162q-141 -160 -141 -473z" />
<glyph unicode="R" horiz-adv-x="1259" d="M96 1327v72h543q442 0 442 -365q0 -309 -305 -379l250 -438q70 -125 141 -135q59 -10 82 -10h45v-72h-280l-375 647h-287v-479q0 -59 19.5 -77.5t87.5 -18.5h33v-72h-396v72h35q74 0 85 18.5t11 106.5v1034q0 68 -14 80q-16 16 -82 16h-35zM352 1309v-572h228 q74 0 127 8.5t114.5 35t95 89t33.5 156.5q0 76 -34.5 149.5t-108.5 102.5q-74 31 -195 31h-260z" />
<glyph unicode="S" horiz-adv-x="1067" d="M924 1348v-291h-101v49q0 109 -18 143q-25 47 -100.5 70.5t-149.5 23.5q-115 0 -204 -58t-89 -179q0 -96 64.5 -164t236.5 -147q225 -104 315.5 -191.5t90.5 -255.5q0 -164 -109.5 -274.5t-339.5 -110.5q-217 0 -422 88v330h105v-80q0 -109 64.5 -175.5t250.5 -66.5 q162 0 241 82t79 195q0 102 -70 178t-276 172q-180 84 -269.5 170t-89.5 225q0 145 111.5 249t314.5 104q177 0 365 -86z" />
<glyph unicode="T" horiz-adv-x="1280" d="M45 1399h1190v-307h-92v133q0 29 -2 41t-11.5 25.5t-31 17.5t-58.5 4h-338v-1129q0 -76 15.5 -94t91.5 -18h39v-72h-414v72h53q63 0 77 18.5t14 81.5v1141h-328q-78 0 -95.5 -20.5t-17.5 -92.5v-108h-92v307z" />
<glyph unicode="U" horiz-adv-x="1449" d="M61 1399h406v-72h-45q-66 0 -79 -20.5t-13 -98.5v-708q0 -74 9 -134.5t36.5 -120t70.5 -98t117 -63.5t170 -25q109 0 187.5 28t120.5 68t65.5 100t30 108.5t6.5 109.5v735q0 78 -13.5 98.5t-78.5 20.5h-45v72h383v-72h-50q-61 0 -74.5 -20.5t-13.5 -81.5v-738 q0 -236 -90 -346q-143 -178 -430 -178q-305 0 -450 191q-76 100 -76 333v738q0 61 -18.5 81.5t-92.5 20.5h-33v72z" />
<glyph unicode="V" horiz-adv-x="1366" d="M20 1399h422v-72h-43q-96 0 -96 -43q0 -12 23 -82q10 -35 14 -41l350 -1016h4l367 1041q25 66 24 92q0 49 -94 49h-43v72h398v-72h-48q-53 0 -72.5 -22.5t-45.5 -100.5l-441 -1222h-114l-426 1210q-29 82 -52.5 108.5t-87.5 26.5h-39v72z" />
<glyph unicode="W" horiz-adv-x="1941" d="M20 1399h406v-72h-59q-66 0 -66 -43q0 -14 12 -59l271 -1047h4l338 1221h114l328 -1221h4l277 1041q8 29 8 57q0 51 -84 51h-45v72h393v-72q-94 -2 -119.5 -22.5t-50.5 -96.5l-10 -30l-328 -1196h-117l-325 1206h-4l-332 -1206h-121l-321 1206q-10 39 -17.5 59.5t-23 42 t-39 29.5t-60.5 8h-33v72z" />
<glyph unicode="X" horiz-adv-x="1343" d="M76 1399h438v-72h-72q-51 -10 -51 -33q0 -16 10 -30l31 -54q12 -12 12 -18l242 -371l244 355q57 76 57 114q0 37 -57 37h-60v72h406v-72q-84 0 -129 -27.5t-121 -138.5l-289 -426l312 -485q55 -86 98 -126t69.5 -46t81.5 -6v-72h-438v72h45q66 0 66 30q0 35 -35 82 l-274 428l-310 -444q-29 -43 -28 -64q0 -33 55 -32h61v-72h-395v72h31q43 0 64.5 6t61.5 43t93 117l313 464l-307 478q-63 100 -107 125q-41 23 -107 22h-11v72z" />
<glyph unicode="Y" horiz-adv-x="1323" d="M16 1399h418v-72h-35q-82 0 -82 -33q0 -18 37 -80l322 -550l315 495q66 106 66 137t-84 31h-62v72h396v-72q-76 0 -103.5 -14.5t-68.5 -79.5l-416 -672v-383q0 -70 15.5 -88t92.5 -18h39v-72h-420v72h50q61 0 78.5 17t17.5 89v373l-389 663q-27 45 -41.5 63.5t-42 34 t-68.5 15.5h-35v72z" />
<glyph unicode="Z" horiz-adv-x="1236" d="M115 1399h1005v-96l-884 -1207h710q80 0 97.5 19.5t17.5 103.5v115h90v-334h-1065v96l885 1207h-611q-111 0 -133 -15.5t-22 -89.5v-119h-90v320z" />
<glyph unicode="[" horiz-adv-x="555" d="M137 1399h348v-80h-245v-1665h245v-84h-348v1829z" />
<glyph unicode="\" horiz-adv-x="1044" d="M113 1399h110l709 -1462h-111z" />
<glyph unicode="]" horiz-adv-x="555" d="M70 1399h348v-1829h-348v84h245v1665h-245v80z" />
<glyph unicode="^" horiz-adv-x="1343" d="M672 1399l448 -537l-65 -55l-383 463l-385 -463l-64 55z" />
<glyph unicode="_" d="M-12 -154h1048v-102h-1048v102z" />
<glyph unicode="`" horiz-adv-x="681" d="M156 1358h157l136 -262h-80z" />
<glyph unicode="a" horiz-adv-x="980" d="M164 702v183q156 100 311 100q59 0 115.5 -13.5t113 -54t72.5 -106.5q14 -51 15 -195v-403q0 -94 9 -119.5t46 -25.5q29 0 86 28v-71q-98 -49 -144 -50q-109 0 -108 164h-4q-106 -164 -295 -164q-66 0 -126 19.5t-113.5 84t-53.5 165.5q0 178 135 258q55 33 119 51 t260 68q49 8 80 20q0 45 -1 69.5t-12.5 68.5t-32 67.5t-63.5 43t-104 19.5q-211 0 -211 -170v-37h-94zM682 399v158q-274 -63 -375.5 -118.5t-101.5 -178.5q0 -90 58.5 -136t139.5 -46q68 0 132.5 32.5t103.5 92.5q43 67 43 196z" />
<glyph unicode="b" d="M-35 1401l258 33v-613h4q102 164 308 164q109 0 190.5 -45t124.5 -120t63.5 -154.5t20.5 -165.5q0 -203 -107.5 -364t-308.5 -161q-74 0 -137.5 26t-87 45.5t-60.5 55.5l-55 -127h-65v1289q0 45 -10.5 61t-45.5 16q-2 0 -92 -4v64zM510 895q-82 0 -141.5 -37t-89 -86 t-47 -116.5t-20.5 -107.5t-3 -81q0 -113 27.5 -195t74.5 -124t96.5 -61t102.5 -19q123 0 212 101t89 312q0 72 -12.5 137.5t-43 131t-93 105.5t-152.5 40z" />
<glyph unicode="c" horiz-adv-x="960" d="M860 907v-266h-98v88q0 31 -5 55.5t-24.5 54t-67 47t-118.5 17.5q-94 0 -162 -43t-101.5 -112.5t-48 -137t-14.5 -137.5q0 -115 31 -196.5t81 -122.5t100 -59.5t102 -18.5q166 0 325 141v-117q-49 -37 -80.5 -57t-107.5 -46t-154 -26q-197 0 -308.5 135.5t-111.5 350.5 q0 141 43 247.5t114 165t147.5 87t158.5 28.5q119 0 299 -78z" />
<glyph unicode="d" horiz-adv-x="1067" d="M655 1405l256 29v-1256q0 -33 1 -48t13.5 -31.5t39.5 -16.5l84 4v-63l-238 -23q-10 61 -10 139h-4q-117 -164 -312 -164q-172 0 -284.5 124t-112.5 356q0 233 113.5 381.5t310.5 148.5q76 0 138.5 -26.5t89 -50t61.5 -62.5v389q0 51 -2 69.5t-15.5 30t-44.5 11.5 q-35 0 -84 -5v64zM207 465q0 -168 73.5 -281.5t221.5 -113.5q104 0 173.5 50t96.5 131t35 134t8 109q0 203 -89 301t-214 98q-145 0 -225 -116.5t-80 -311.5z" />
<glyph unicode="e" horiz-adv-x="980" d="M899 520h-684q2 -78 6 -125t34 -126t87 -128q84 -74 199 -73q164 0 340 161v-112q-43 -41 -77 -65.5t-111 -52.5t-167 -28q-199 0 -314.5 135.5t-115.5 356.5q0 145 41 253.5t107.5 164t136.5 80t143 24.5q367 0 375 -465zM229 598h549q-18 307 -258 307 q-102 0 -184 -68.5t-107 -238.5z" />
<glyph unicode="f" horiz-adv-x="532" d="M47 877v81h133v132q0 344 297 344q104 0 201 -56v-159h-92v36q0 23 -2 37.5t-12.5 35t-37 30.5t-69.5 10q-41 0 -73 -13.5t-50 -41t-29.5 -53t-15.5 -70.5t-5 -70.5t-1 -75.5v-86h209v-81h-209v-697q0 -88 10 -98q14 -16 80 -16h45v-66h-379v66h35q70 0 84 15t14 83v713 h-133z" />
<glyph unicode="g" d="M977 958v-96h-193q82 -102 82 -229q0 -86 -34.5 -169t-104.5 -130q-72 -51 -244 -64q-47 -4 -72.5 -7t-62.5 -11t-54.5 -26.5t-17.5 -45.5q0 -63 173 -71q68 -4 98.5 -5.5t84.5 -5.5t79 -8l64 -11q40 -7 59 -16l46 -21q28 -13 39 -30l24 -37q13 -20 17.5 -45.5t4.5 -58.5 q0 -82 -41 -143.5t-96.5 -93t-129 -51t-123 -23.5t-92.5 -4q-180 0 -303 65.5t-123 188.5q0 150 224 225v4q-109 33 -109 115q0 49 39 93t121 64q-190 100 -191 316q0 145 97.5 251.5t269.5 106.5q68 0 151 -27h318zM504 909q-111 0 -181.5 -69.5t-70.5 -214.5 q0 -113 64.5 -194t189.5 -81q78 0 132 29t78.5 75t35 88t10.5 85t-10.5 86t-36 90t-79.5 76.5t-132 29.5zM494 0q-186 0 -269 -63q-61 -45 -61 -113q0 -66 57.5 -110t128 -60t144.5 -16q45 0 99 8t116.5 29.5t103.5 66.5t41 106q0 43 -20.5 73t-49 45.5t-83 23.5t-95 9 t-112.5 1z" />
<glyph unicode="h" d="M12 1403l252 31v-615h4q111 158 303.5 158t268.5 -143q31 -61 30 -197v-502q0 -47 5.5 -58t33.5 -11h74v-66h-340v66h29q61 0 72.5 15t11.5 87v450q0 41 -1 65t-12.5 67t-32 67.5t-63.5 44t-102 19.5q-78 0 -140.5 -37t-97.5 -90q-43 -66 -43 -226v-372q0 -55 6 -74 q4 -12 14.5 -14t55.5 -2h37v-66h-338v66h39q55 0 65.5 17t10.5 91v1063q0 66 -8.5 85t-49.5 19q-39 0 -84 -4v66z" />
<glyph unicode="i" horiz-adv-x="468" d="M39 944l250 27v-819q0 -63 9 -74.5t62 -11.5h43v-66h-342v66h37q61 0 70.5 14t9.5 98v590q0 78 -7 97.5t-46 19.5q-2 0 -86 -6v65zM223 1405q37 0 63.5 -25.5t26.5 -62.5q0 -39 -26.5 -64.5t-63.5 -25.5t-63.5 25.5t-26.5 64.5q0 37 26.5 62.5t63.5 25.5z" />
<glyph unicode="j" horiz-adv-x="468" d="M41 879v65l260 27v-1000q0 -51 -1 -79.5t-5 -79t-14.5 -80t-30 -67.5t-46 -58.5t-69.5 -35.5t-98 -15q-76 0 -156 26v166h80q0 -37 3 -58.5t25.5 -44t63.5 -22.5q90 0 113.5 72t23.5 268v858q0 37 -16 49.5t-61 12.5q-6 0 -14.5 -1t-25 -2t-32.5 -1zM235.5 1405 q36.5 0 63.5 -25.5t27 -62.5q0 -39 -27 -64.5t-63.5 -25.5t-63.5 25.5t-27 64.5q0 37 27 62.5t63.5 25.5z" />
<glyph unicode="k" horiz-adv-x="937" d="M4 1405l250 29v-893l321 258q2 0 11 8l20 16q33 23 33 43q0 18 -15.5 22.5t-56.5 4.5v65h355v-65q-51 0 -76 -9.5t-84 -47.5q-20 -10 -31 -21l-352 -268l385 -371q76 -74 112.5 -92t90.5 -18v-66h-353v66q72 0 72 24.5t-41 61.5l-391 366v-342q0 -78 11 -94t73 -16h55 v-66h-360v66h39q53 0 62 16t9 94v1079q0 29 -1 39.5t-5 24.5t-15 19t-30 5q-6 0 -13 -1t-27.5 -2t-47.5 -3v68z" />
<glyph unicode="l" horiz-adv-x="468" d="M287 1434v-1270q0 -70 11 -84t73 -14h35v-66h-351v66h29q68 0 80 15t12 83v1065q0 90 -14 104q-10 8 -37 8q-13 0 -31 -2l-65 -6v70z" />
<glyph unicode="m" horiz-adv-x="1642" d="M29 932l229 26q18 -47 23 -147h4q102 166 303 166q213 0 282 -178q31 45 56.5 73.5t99.5 66.5t166 38q90 0 168 -42t106 -118q25 -66 25 -199v-462q0 -66 10 -78t68 -12h35v-66h-347v66h33q70 0 78 10q12 14 12 117v401q0 51 -2 79.5t-13 74t-31.5 70t-63.5 44t-105 19.5 q-152 0 -229 -121q-49 -78 -49 -221v-375q0 -74 14 -86t94 -12v-66h-338v66h37q59 0 70.5 19t11.5 108v401q0 51 -2 81t-12 75t-31.5 68.5t-63.5 43t-102 19.5q-43 0 -85 -12.5t-90 -43t-77.5 -98.5t-29.5 -164v-399q0 -70 11 -84t64 -14h37v-66h-340v66h33q59 0 71.5 17 t12.5 93v596q0 61 -9 81.5t-46 20.5h-88v58z" />
<glyph unicode="n" horiz-adv-x="1044" d="M29 932l231 26q18 -80 19 -151h4q27 43 52 72.5t94 63.5t157 34q184 0 266 -133q35 -61 35 -217v-490q0 -53 11 -62t69 -9h37v-66h-351v66q68 0 84.5 2t24.5 16q10 14 10 90v449q0 41 -2 66.5t-12 66.5t-31.5 65.5t-63.5 43t-102 18.5q-154 0 -239 -129 q-12 -18 -20.5 -45t-11.5 -55.5t-5 -50t-2 -48.5v-33v-358q0 -74 9 -86t68 -12h37v-66h-338v66h37q53 0 64.5 16t11.5 82v608q0 45 -2 62.5t-15.5 28.5t-41.5 11q-27 0 -84 -6v64z" />
<glyph unicode="o" horiz-adv-x="1087" d="M553 985q119 0 208 -43t138 -114.5t72.5 -153.5t23.5 -170q0 -295 -168 -434q-121 -98 -288 -99q-184 0 -315.5 120t-131.5 368q0 262 132 394t329 132zM541 897q-31 0 -64 -6t-83 -33t-88 -70t-65.5 -126.5t-27.5 -194.5q0 -106 28.5 -187t68.5 -121t92.5 -64.5t85 -30 t63.5 -5.5q49 0 97 15.5t102.5 56.5t88 130t33.5 218q0 29 -2 54.5t-10 81t-29.5 98.5t-55.5 88t-95 70.5t-139 25.5z" />
<glyph unicode="p" horiz-adv-x="1067" d="M25 930l231 28q6 -63 8 -141q41 45 71 71.5t99.5 57.5t149.5 31q178 0 287.5 -128t109.5 -345q0 -215 -110.5 -372t-307.5 -157q-188 0 -295 148h-4v-385q0 -76 10.5 -92.5t67.5 -16.5h55v-63h-358v63h33h45q8 0 21.5 12.5t14.5 36t1 76.5v1014v16q0 33 -1 45.5 t-5.5 24.5t-13.5 15t-28 3l-81 -2v60zM559 887q-109 0 -184 -70q-121 -109 -121 -358q0 -174 76 -283.5t223 -109.5q88 0 151.5 38.5t95 104t46 133.5t14.5 141q0 168 -72.5 286t-228.5 118z" />
<glyph unicode="q" horiz-adv-x="1044" d="M846 977h74v-1215v-24q0 -78 9 -93.5t62 -15.5h43v-63h-360v63h37q68 0 77 9q20 16 21 110v399h-4q-98 -172 -311 -172q-94 0 -167 32t-115 81t-69.5 115.5t-38 127t-10.5 124.5q0 262 124 392t290 130q158 0 285 -121zM211 471q0 -184 82 -296t221 -112q141 0 222 108 t81 308q0 221 -96 324q-80 84 -205 84q-53 0 -104.5 -21.5t-97.5 -66.5t-74.5 -130t-28.5 -198z" />
<glyph unicode="r" horiz-adv-x="681" d="M49 932l223 26q16 -66 19 -174h4q47 96 124 144.5t156 48.5q39 0 95 -19v-163h-76v39q0 18 -2 27t-17.5 20.5t-44 11.5t-65.5 -21.5t-78 -68.5t-67.5 -141.5t-26.5 -219.5v-297q0 -57 13 -68t77 -11h31v-66h-344v66h30q61 0 71.5 17t10.5 99v580q0 88 -12 100t-43 12 q-25 0 -78 -6v64z" />
<glyph unicode="s" horiz-adv-x="811" d="M680 924v-246h-84v84q0 49 -10 72q-14 35 -68.5 55t-111.5 20q-96 0 -149.5 -42t-53.5 -113q0 -76 54 -118t169 -89q76 -31 115 -50.5t91 -55t75.5 -84t23.5 -111.5q0 -121 -93 -198t-267 -77q-158 0 -291 60v274h94v-98q0 -59 12 -84q20 -39 75.5 -58.5t111.5 -19.5 q31 0 60.5 5t78.5 20.5t79 58.5t30 106.5t-47.5 111.5t-163.5 95q-82 33 -126 54.5t-94.5 56.5t-72 80t-21.5 102q0 104 77 177t237 73q143 0 270 -61z" />
<glyph unicode="t" horiz-adv-x="598" d="M215 1206h66v-248h262v-84h-262v-638q0 -51 3 -80t27.5 -61t73.5 -32q76 0 180 66v-86q-111 -68 -215 -68q-53 0 -90 18.5t-54.5 42t-27.5 63.5t-11 63.5t-1 64.5v647h-119v52q150 55 168 280z" />
<glyph unicode="u" d="M4 948l252 23v-584q0 -111 8 -158t37 -84q59 -72 164 -71q78 0 143.5 36.5t102.5 100.5q43 76 43 254v313q0 49 -3 67.5t-18.5 31t-50.5 12.5q-33 0 -70 -4v63l252 23v-789q0 -68 10.5 -83t51.5 -15q2 0 75 6v-65l-231 -25q-14 57 -14 141h-4q-39 -53 -66 -81.5 t-92.5 -58.5t-151.5 -30q-164 0 -252 117q-49 70 -49 231v472q0 72 -18 87q-12 10 -59 10q-25 0 -60 -3v63z" />
<glyph unicode="v" horiz-adv-x="1003" d="M10 958h371v-65q-47 0 -66.5 -2t-31 -11.5t-11.5 -27.5q0 -23 7 -35l249 -659l232 635q16 45 16 59q0 41 -80 41h-30v65h325v-65q-68 0 -90 -18.5t-55 -104.5l-299 -803h-68l-297 776q-39 102 -65.5 124t-106.5 26v65z" />
<glyph unicode="w" horiz-adv-x="1449" d="M8 958h373v-65h-39q-27 0 -39 -1t-23.5 -11.5t-11.5 -28.5q0 -4 15 -68l182 -624h4l231 798h84l242 -798h4l178 624q12 45 13 66q0 16 -5.5 24.5t-22.5 12.5t-32.5 5t-50.5 1v65h332v-65h-13q-69 0 -92 -21q-25 -23 -47 -102q0 -2 -4 -16.5t-6 -20.5l-225 -758h-76 l-244 799h-4l-237 -799h-68l-248 768q-18 55 -32.5 85t-38 44.5t-41 17.5t-58.5 3v65z" />
<glyph unicode="x" horiz-adv-x="980" d="M51 958h365v-65h-33h-32q-9 0 -20.5 -3t-15.5 -8t-4 -16q0 -16 43 -78l146 -217l172 232l6 6q31 45 31 59q0 25 -68 25h-29v65h326v-65q-70 -6 -101.5 -27.5t-82.5 -89.5l-207 -272l192 -285q0 -2 4.5 -6t8.5 -11t8 -12q57 -88 88 -106t102 -18v-66h-362v66h45 q53 0 53 26q0 16 -16 43q-6 6 -27 37l-160 242l-204 -279l-7 -8q-18 -25 -18 -37q0 -25 63 -24h29v-66h-317v66q66 4 96.5 23.5t95.5 107.5l215 286l-172 254q-70 100 -107.5 127t-105.5 29v65z" />
<glyph unicode="y" horiz-adv-x="980" d="M-6 958h366v-65h-55q-55 0 -55 -41q0 -16 29 -88l223 -602l239 645q12 37 13 43q0 43 -78 43h-33v65h330v-65h-27q-49 0 -70.5 -20.5t-52.5 -102.5l-354 -942q-6 -12 -12 -31q-20 -55 -34.5 -85.5t-46.5 -75t-81 -66t-115 -21.5q-70 0 -139 35v162h88q0 -49 2 -69.5 t17.5 -36t48.5 -15.5q113 0 170 172l10 31l65 172l-288 756q-29 78 -54.5 107.5t-74.5 29.5h-31v65z" />
<glyph unicode="z" horiz-adv-x="811" d="M57 711v247h701v-81l-590 -797h418q70 0 85 9t15 54v125h92v-268h-741v76l594 801h-406q-51 0 -62 -10.5t-11 -61.5v-94h-95z" />
<glyph unicode="{" horiz-adv-x="618" d="M553 1399v-109q-63 -2 -94 -10t-53.5 -42t-27.5 -91t-5 -170q0 -82 -1 -121t-6.5 -98.5t-17.5 -90t-33.5 -69.5t-55.5 -64.5t-83 -48.5q57 -27 96 -65.5t58.5 -74.5t30 -97.5t11.5 -100t1 -118.5q0 -238 27.5 -293t152.5 -58v-108q-61 -2 -108.5 11t-78 31.5t-52 55.5 t-32 65.5t-15.5 83t-6 85t-1 90.5q0 172 -5 233.5t-30 104.5q-25 41 -56.5 62.5t-50 24.5t-50.5 5v125q45 2 79.5 17.5t55 44t34 57t18.5 69.5t6 65.5t1 61.5q0 246 8.5 319.5t48.5 125.5q72 92 234 92z" />
<glyph unicode="|" horiz-adv-x="1044" d="M467 1399h111v-1702h-111v1702z" />
<glyph unicode="}" horiz-adv-x="618" d="M66 -430v108q63 2 93.5 10.5t53.5 42t28 91t5 170.5q0 82 1 121t6 98t17.5 90t34 70t55 64.5t82.5 47.5q-57 27 -96 66t-58.5 74.5t-29.5 97t-11 100.5t-1 119q0 238 -28 293t-152 57v109q61 2 108 -11.5t78 -32t52.5 -55t31.5 -65.5t15 -83t6 -85t1 -90 q0 -172 5.5 -233.5t29.5 -104.5q25 -41 56.5 -62.5t50 -24.5t51.5 -5v-125q-45 -2 -80 -17.5t-55.5 -44t-33.5 -57.5t-18.5 -69.5t-6.5 -65.5t-1 -62q0 -246 -8 -319.5t-49 -124.5q-71 -92 -233 -92z" />
<glyph unicode="~" horiz-adv-x="1343" d="M135 612v121q154 121 293 121q88 0 287 -94q143 -68 207 -68q125 0 286 139v-122q-154 -125 -274 -125q-68 0 -130.5 20.5t-195.5 85.5q-123 57 -182 58q-121 -1 -291 -136z" />
<glyph unicode="&#xa1;" horiz-adv-x="425" d="M274 -449h-118v121l16 983h86l16 -983v-121zM213 807q-37 0 -63.5 26.5t-26.5 61.5q0 37 26.5 63.5t63.5 26.5t63.5 -26.5t26.5 -63.5t-26.5 -62.5t-63.5 -25.5z" />
<glyph unicode="&#xa2;" horiz-adv-x="1044" d="M909 1092v-263h-96v84q0 92 -39 133t-164 46v-824q66 0 142.5 39t107.5 64.5t51 46.5v-119q-143 -125 -301 -133v-234h-98v236q-180 20 -271 157.5t-91 338.5q0 410 362 497v248h98v-238q149 1 299 -79zM512 272v807q-236 -78 -236 -413q0 -326 236 -394z" />
<glyph unicode="&#xa3;" horiz-adv-x="1044" d="M922 1303v-246h-88q-2 43 -4.5 65.5t-13.5 59.5t-30.5 56t-59.5 35.5t-95 16.5q-72 0 -124 -23.5t-75.5 -53t-37 -68.5t-15.5 -56.5t-2 -31.5q0 -61 12 -113.5t53 -187.5l13 -37h358v-94h-332q25 -94 25 -172q0 -193 -170 -326l4 -4q70 25 119 24q55 0 145 -30 q131 -41 182 -41q68 0 160 61v-98q-76 -66 -172 -66q-55 0 -192 41q-113 35 -174 35q-63 0 -175 -41q-33 -10 -59 -19l-45 -16v99q262 143 262 379q0 90 -24 174h-160v94h129q-6 27 -21 57q-55 162 -55 242q0 147 99.5 249.5t279.5 102.5q136 1 283 -67z" />
<glyph unicode="&#xa4;" horiz-adv-x="1386" d="M971 1012l127 125l73 -76l-124 -125q94 -135 94 -279q0 -147 -97 -274l127 -127l-73 -74l-127 125q-133 -96 -277 -96q-139 0 -278 96l-125 -125l-76 74l127 125q-96 131 -96 278q0 141 96 279l-127 123l76 76l125 -125q137 96 278 96q138 0 277 -96zM1034 659.5 q0 141.5 -99 241.5t-240.5 100t-242 -100t-100.5 -241.5t100.5 -242t242 -100.5t240.5 100.5t99 242z" />
<glyph unicode="&#xa5;" horiz-adv-x="1280" d="M879 1343h381v-69q-74 0 -99.5 -14.5t-64.5 -75.5l-338 -547h381v-84h-434l-9 -14v-146h443v-84h-443v-137q0 -39 1 -53.5t11.5 -29.5t31 -18t59.5 -3h39v-68h-406v68h49q59 0 75.5 16t16.5 88v137h-432v84h432v135l-12 25h-420v84h367l-309 530q-25 43 -38.5 60.5 t-40 32t-67.5 14.5h-33v69h402v-69h-35q-78 0 -78 -31q0 -16 35 -76l311 -530l301 477q63 102 63.5 131t-79.5 29h-61v69z" />
<glyph unicode="&#xa6;" horiz-adv-x="1044" d="M467 418h111v-721h-111v721zM467 1399h111v-721h-111v721z" />
<glyph unicode="&#xa7;" horiz-adv-x="917" d="M733 1376v-241h-90v53q0 31 -3 51.5t-16.5 53t-48 50t-90.5 17.5q-18 0 -40.5 -4t-58.5 -17.5t-59.5 -48.5t-23.5 -88q0 -74 43 -132t168 -165q121 -102 177.5 -157.5t102.5 -134t46 -158.5q0 -57 -20.5 -108.5t-46 -85.5t-72 -70.5t-72 -53t-72.5 -43.5q53 -45 83 -74.5 t59.5 -91t29.5 -129.5q0 -70 -28.5 -120t-78 -75.5t-100.5 -36.5t-108 -11q-115 0 -236 53v241h94v-63q0 -158 158 -158q84 0 133 41t49 117q0 66 -45 124t-186 183q-125 113 -176 164t-89 122t-38 152q0 76 27.5 136.5t80 102.5t88 63.5t91.5 46.5q-82 78 -124 140 t-49.5 91t-7.5 68q0 117 85 185.5t216 68.5q113 -1 248 -58zM479 776l-53 45q-100 -45 -152 -100q-33 -35 -53 -87t-20 -93q0 -59 36.5 -121t77.5 -103t127 -118l47 -41q225 96 226 282q0 68 -35 129.5t-74 98t-127 108.5z" />
<glyph unicode="&#xa8;" horiz-adv-x="681" d="M160 1249q33 0 54.5 -22.5t21.5 -55t-23 -54t-53 -21.5q-33 0 -54.5 22.5t-21.5 53t21.5 54t54.5 23.5zM522 1249q31 0 53.5 -22.5t22.5 -55t-22.5 -54t-53 -21.5t-53.5 21.5t-23 54t21.5 55t54.5 22.5z" />
<glyph unicode="&#xa9;" horiz-adv-x="1642" d="M1153 924l-96 -29q-72 166 -226 166q-27 0 -57.5 -6t-72.5 -27.5t-73.5 -55.5t-54 -95.5t-22.5 -141.5q0 -168 79 -261t191 -93q59 0 103.5 18.5t73 54t43 62.5t30.5 70l90 -33q-16 -45 -30.5 -72.5t-52.5 -80t-102.5 -81t-150.5 -28.5q-176 0 -279.5 133t-103.5 305 q0 162 100.5 289t288.5 127q209 0 322 -221zM1585 727q0 -317 -223 -540.5t-540.5 -223.5t-541 223.5t-223.5 540.5t223.5 540.5t541 223.5t540.5 -223.5t223 -540.5zM1493 727.5q0 278.5 -196.5 475t-475 196.5t-474 -196.5t-195.5 -475t195.5 -474.5t474 -196t475 196 t196.5 474.5z" />
<glyph unicode="&#xaa;" horiz-adv-x="641" d="M100 1253v117q104 63 211 64q66 0 126.5 -25t76.5 -80q10 -33 10 -121v-237q0 -55 3 -67.5t20 -12.5q12 0 53 18q12 6 14 9v-60q-70 -33 -102 -33q-31 0 -49.5 13.5t-23.5 26t-9 34.5q-66 -74 -180 -74q-74 0 -136.5 39t-62.5 127q0 45 17.5 79t39 54.5t80 41t102.5 30.5 l142 33q0 31 -2 49t-12 45t-38 40t-73 13q-123 0 -123 -94v-29h-84zM432 1081v84q-168 -35 -225 -66.5t-57 -99.5q0 -51 34.5 -76.5t79.5 -25.5q68 0 118 40t50 144z" />
<glyph unicode="&#xab;" horiz-adv-x="897" d="M430 94h-106l-258 381l258 389h106l-235 -389zM819 94h-106l-258 381l258 389h106l-235 -389z" />
<glyph unicode="&#xac;" horiz-adv-x="1366" d="M143 950h1080v-575h-109v467h-971v108z" />
<glyph unicode="&#xad;" horiz-adv-x="641" d="M70 530h501v-114h-501v114z" />
<glyph unicode="&#xae;" horiz-adv-x="1642" d="M1585 727q0 -317 -223 -540.5t-540.5 -223.5t-541 223.5t-223.5 540.5t223.5 540.5t541 223.5t540.5 -223.5t223 -540.5zM1493 727.5q0 278.5 -196.5 475t-475 196.5t-474 -196.5t-195.5 -475t195.5 -474.5t474 -196t475 196t196.5 474.5zM512 1120h334q76 0 132 -20.5 t81.5 -47t40 -62.5t16.5 -51t2 -32q0 -53 -19.5 -95t-46 -64.5t-63.5 -38t-60.5 -20.5t-47.5 -7v-4q61 -20 93 -47t70.5 -94.5t104.5 -219.5h-121l-22 48q-88 197 -149.5 249t-197.5 52h-47v-349h-100v803zM612 1038v-288h133q57 0 96.5 4t79.5 18t60 46t20 81 q0 61 -34.5 94t-78.5 39t-126 6h-150z" />
<glyph unicode="&#xaf;" horiz-adv-x="681" d="M66 1233h550v-96h-550v96z" />
<glyph unicode="&#x2c9;" horiz-adv-x="681" d="M66 1233h550v-96h-550v96z" />
<glyph unicode="&#xb0;" horiz-adv-x="811" d="M692 1083q0 -121 -84 -203.5t-202.5 -82.5t-202.5 84t-84 202.5t84 202.5t202.5 84t202.5 -84t84 -203zM610 1083q0 84 -60.5 144.5t-144 60.5t-144 -60.5t-60.5 -144.5t60.5 -144t144 -60t144 60t60.5 144z" />
<glyph unicode="&#xb1;" horiz-adv-x="1366" d="M145 109h1076v-109h-1076v109zM145 915h484v484h108v-484h484v-108h-484v-483h-108v483h-484v108z" />
<glyph unicode="&#xb2;" horiz-adv-x="618" d="M88 1237v117q94 80 211 80q86 0 151.5 -46.5t65.5 -142.5q0 -98 -108 -219q-123 -141 -215 -231h210q43 0 52.5 6t9.5 37v45h78v-162h-475v53q20 20 24 23q63 63 88 84q98 92 187 217q55 76 55 153q0 49 -34 86t-97 37q-127 0 -127 -98v-39h-76z" />
<glyph unicode="&#xb3;" horiz-adv-x="618" d="M98 1249v125q100 59 199 60q90 0 155.5 -41t65.5 -129q0 -74 -43 -115t-80 -49v-4q137 -39 137 -170q0 -88 -68.5 -152.5t-197.5 -64.5q-102 0 -188 51v135h78v-47q0 -78 114 -78q76 0 121 41t45 109q0 78 -54 109.5t-167 31.5v67q86 -4 149.5 27t63.5 100q0 45 -31.5 83 t-99.5 38q-121 0 -121 -90v-37h-78z" />
<glyph unicode="&#xb4;" horiz-adv-x="681" d="M369 1358h157l-213 -262h-80z" />
<glyph unicode="&#xb5;" d="M127 -434v1392h113v-337q0 -215 14 -296t70 -149q78 -94 196 -94q158 0 238 156q37 72 37 380v340h104v-958h-104v119h-4q-23 -31 -37.5 -47.5t-48 -43t-82 -40t-109.5 -13.5q-25 0 -46.5 3.5l-39.5 6.5t-36.5 12t-31 14t-28 17.5t-23.5 17.5t-21.5 19.5t-17.5 18.5 t-16 18l-14 17v-553h-113z" />
<glyph unicode="&#x3bc;" d="M127 -434v1392h113v-337q0 -215 14 -296t70 -149q78 -94 196 -94q158 0 238 156q37 72 37 380v340h104v-958h-104v119h-4q-23 -31 -37.5 -47.5t-48 -43t-82 -40t-109.5 -13.5q-25 0 -46.5 3.5l-39.5 6.5t-36.5 12t-31 14t-28 17.5t-23.5 17.5t-21.5 19.5t-17.5 18.5 t-16 18l-14 17v-553h-113z" />
<glyph unicode="&#xb6;" horiz-adv-x="1323" d="M1268 1466v-120h-197v-1756h-121v1756h-278v-1756h-125v1035q-133 0 -228.5 44t-140.5 115.5t-63.5 136t-18.5 126.5q0 184 125 301.5t354 117.5h693z" />
<glyph unicode="&#xb7;" horiz-adv-x="425" d="M213 762q37 0 63.5 -26.5t26.5 -63.5t-26.5 -63.5t-63.5 -26.5t-63.5 26.5t-26.5 63.5t26.5 63.5t63.5 26.5z" />
<glyph unicode="&#x2219;" horiz-adv-x="425" d="M213 762q37 0 63.5 -26.5t26.5 -63.5t-26.5 -63.5t-63.5 -26.5t-63.5 26.5t-26.5 63.5t26.5 63.5t63.5 26.5z" />
<glyph unicode="&#xb8;" horiz-adv-x="681" d="M309 20h94l-32 -98q88 -4 123.5 -50t35.5 -93q0 -23 -8 -45.5t-28.5 -51t-66.5 -46t-114 -17.5q-80 0 -166 27v80q74 -23 146 -23q123 0 123 76q0 80 -156 74z" />
<glyph unicode="&#xb9;" horiz-adv-x="618" d="M324 1434h57v-611q0 -33 7 -41t38 -8h68v-53h-318v53h72q31 0 37 8.5t6 40.5v434q0 27 -6 32t-37 3l-88 -6v47q63 8 99 28t65 73z" />
<glyph unicode="&#xba;" horiz-adv-x="724" d="M367 1434q143 0 220 -82t77 -213q0 -90 -30 -155.5t-79 -98.5t-97 -47.5t-99.5 -14.5t-99.5 14.5t-95 45t-75 91t-28 142.5q0 160 87.5 239t218.5 79zM360 1368q-20 0 -45.5 -7t-64.5 -27.5t-63.5 -75t-24.5 -136.5q0 -76 24.5 -127t61.5 -72.5t65.5 -28.5t53.5 -7 q72 0 133 53t61 188q0 37 -7 71t-25.5 76t-62 67.5t-106.5 25.5z" />
<glyph unicode="&#xbb;" horiz-adv-x="897" d="M467 864h106l258 -381l-258 -389h-106l235 389zM78 864h106l258 -381l-258 -389h-106l235 389z" />
<glyph unicode="&#xbc;" horiz-adv-x="1599" d="M1200 1434h92l-891 -1471h-94zM324 1434h57v-611q0 -33 7 -41t38 -8h68v-53h-318v53h72q31 0 37 8.5t6 40.5v434q0 27 -6 32t-37 3l-88 -6v47q63 8 99 28t65 73zM1300 711h80v-469h90v-68h-90v-78q0 -37 5.5 -44t37.5 -7h39v-45h-278v45h61q33 0 39 6t6 39v84h-338v68z M1290 242v344h-4l-252 -344h256z" />
<glyph unicode="&#xbd;" horiz-adv-x="1599" d="M1200 1434h92l-891 -1471h-94zM324 1434h57v-611q0 -33 7 -41t38 -8h68v-53h-318v53h72q31 0 37 8.5t6 40.5v434q0 27 -6 32t-37 3l-88 -6v47q63 8 99 28t65 73zM1069 516v117q94 80 211 80q86 0 151.5 -46t65.5 -143q0 -98 -108 -219q-123 -141 -215 -231h210 q43 0 52.5 6t9.5 37v45h78v-162h-475v53q20 20 24 23q63 63 88 84q98 92 187 217q55 76 55 153q0 49 -34 86t-97 37q-127 0 -127 -98v-39h-76z" />
<glyph unicode="&#xbe;" horiz-adv-x="1599" d="M1200 1434h92l-891 -1471h-94zM119 1249v125q100 59 198 60q90 0 156 -41t66 -129q0 -74 -43 -115t-80 -49v-4q137 -39 137 -170q0 -88 -68.5 -152.5t-197.5 -64.5q-102 0 -189 51v135h78v-47q0 -78 115 -78q76 0 121 41t45 109q0 78 -54.5 109.5t-166.5 31.5v67 q86 -4 149.5 27t63.5 100q0 45 -32 83t-100 38q-121 0 -120 -90v-37h-78zM1300 711h80v-469h90v-68h-90v-78q0 -37 5.5 -44t37.5 -7h39v-45h-278v45h61q33 0 39 6t6 39v84h-338v68zM1290 242v344h-4l-252 -344h256z" />
<glyph unicode="&#xbf;" horiz-adv-x="831" d="M766 -123v-237q-168 -117 -348 -117q-145 0 -250 85t-105 242q0 102 39 174t160 222q102 127 131 210t35 201h90q0 -131 -30.5 -227t-116.5 -213q-82 -111 -113 -156t-52.5 -101t-21.5 -118q0 -84 60.5 -157.5t193.5 -73.5q233 0 234 223v43h94zM473 809 q-37 0 -62.5 25.5t-25.5 62.5t25.5 62.5t62.5 25.5t62.5 -26.5t25.5 -61.5q0 -37 -25.5 -62.5t-62.5 -25.5z" />
<glyph unicode="&#xc0;" horiz-adv-x="1366" d="M627 1417h112l428 -1216q29 -84 54.5 -106.5t81.5 -22.5h43v-72h-414v72h51q29 0 42 2t24.5 11t11.5 28q0 10 -4 27.5t-10.5 35t-6.5 19.5l-96 272h-551l-98 -283q-14 -43 -14 -57q0 -55 81 -55h52v-72h-394v72h35q59 0 83 19.5t59 115.5zM911 555l-239 702h-4l-242 -702 h485zM498 1772h157l136 -262h-80z" />
<glyph unicode="&#xc1;" horiz-adv-x="1366" d="M627 1417h112l428 -1216q29 -84 54.5 -106.5t81.5 -22.5h43v-72h-414v72h51q29 0 42 2t24.5 11t11.5 28q0 10 -4 27.5t-10.5 35t-6.5 19.5l-96 272h-551l-98 -283q-14 -43 -14 -57q0 -55 81 -55h52v-72h-394v72h35q59 0 83 19.5t59 115.5zM911 555l-239 702h-4l-242 -702 h485zM711 1772h157l-213 -262h-80z" />
<glyph unicode="&#xc2;" horiz-adv-x="1366" d="M627 1417h112l428 -1216q29 -84 54.5 -106.5t81.5 -22.5h43v-72h-414v72h51q29 0 42 2t24.5 11t11.5 28q0 10 -4 27.5t-10.5 35t-6.5 19.5l-96 272h-551l-98 -283q-14 -43 -14 -57q0 -55 81 -55h52v-72h-394v72h35q59 0 83 19.5t59 115.5zM911 555l-239 702h-4l-242 -702 h485zM532 1510h-104l199 262h116l195 -262h-111l-147 194z" />
<glyph unicode="&#xc3;" horiz-adv-x="1366" d="M627 1417h112l428 -1216q29 -84 54.5 -106.5t81.5 -22.5h43v-72h-414v72h51q29 0 42 2t24.5 11t11.5 28q0 10 -4 27.5t-10.5 35t-6.5 19.5l-96 272h-551l-98 -283q-14 -43 -14 -57q0 -55 81 -55h52v-72h-394v72h35q59 0 83 19.5t59 115.5zM911 555l-239 702h-4l-242 -702 h485zM874 1678h91q0 -70 -44 -120t-122 -50q-55 0 -142 45q-66 37 -92 37q-57 0 -71 -80h-95q6 59 31 97t58.5 52.5t51 17.5t33.5 3q57 0 127 -41q70 -39 101 -39q61 0 73 78z" />
<glyph unicode="&#xc4;" horiz-adv-x="1366" d="M627 1417h112l428 -1216q29 -84 54.5 -106.5t81.5 -22.5h43v-72h-414v72h51q29 0 42 2t24.5 11t11.5 28q0 10 -4 27.5t-10.5 35t-6.5 19.5l-96 272h-551l-98 -283q-14 -43 -14 -57q0 -55 81 -55h52v-72h-394v72h35q59 0 83 19.5t59 115.5zM911 555l-239 702h-4l-242 -702 h485zM502 1663q33 0 54.5 -22.5t21.5 -55t-23 -54t-53 -21.5q-33 0 -54.5 22.5t-21.5 53t21.5 54t54.5 23.5zM864 1663q31 0 53.5 -22.5t22.5 -55t-22.5 -54t-53 -21.5t-53.5 21.5t-23 54t21.5 55t54.5 22.5z" />
<glyph unicode="&#xc5;" horiz-adv-x="1366" d="M627 1417h112l428 -1216q29 -84 54.5 -106.5t81.5 -22.5h43v-72h-414v72h51q29 0 42 2t24.5 11t11.5 28q0 10 -4 27.5t-10.5 35t-6.5 19.5l-96 272h-551l-98 -283q-14 -43 -14 -57q0 -55 81 -55h52v-72h-394v72h35q59 0 83 19.5t59 115.5zM911 555l-239 702h-4l-242 -702 h485zM684 1862q72 0 124 -52.5t52 -124t-52 -123.5t-124 -52q-74 0 -126 51t-52 125t52 125t126 51zM682 1800q-45 0 -80 -33.5t-35 -80.5q0 -49 34 -83t81 -34t81 34t34 83t-34 81.5t-81 32.5z" />
<glyph unicode="&#xc6;" horiz-adv-x="1921" d="M678 1399h1134v-293h-92v100q0 68 -18.5 84.5t-104.5 16.5h-524v-543h363q106 0 133.5 15.5t27.5 88.5v43h76v-385h-76v49q0 70 -18 85.5t-92 15.5h-414v-586h551q82 0 103.5 13.5t21.5 76.5v101h92v-281h-1036v72h41q72 0 89 18.5t17 79.5v293h-506l-159 -273 q-43 -70 -43 -94q0 -16 13 -20t52 -4h80v-72h-389v72h29q53 0 75.5 10t40.5 39l15 22l9 16q3 5 7 11l612 1055q35 63 35 73q0 20 -16 24.5t-62 4.5h-67v72zM498 549h454v778h-4z" />
<glyph unicode="&#xc7;" horiz-adv-x="1343" d="M727 -35l-14 -43q88 -4 124.5 -50t36.5 -93q0 -20 -8 -44t-28.5 -52.5t-67.5 -46t-113 -17.5q-82 0 -165 27v80q74 -23 143 -23q123 0 123 76q0 80 -154 74l35 122q-147 23 -256 97.5t-166 180t-82.5 212t-25.5 217.5q0 319 183 535.5t501 216.5q242 0 448 -115v-283 h-108q-2 131 -9 154q-20 76 -126.5 110.5t-213.5 34.5q-250 0 -393 -171t-143 -470q0 -170 48 -296t128 -193.5t168 -99t184 -31.5q82 0 157 17.5t139.5 51t93 52t75.5 53.5v-125q-76 -51 -130 -81t-159.5 -55.5t-224.5 -21.5z" />
<glyph unicode="&#xc8;" horiz-adv-x="1216" d="M102 1399h1004v-295h-92v115q0 59 -23.5 73.5t-111.5 14.5h-514v-543h407q74 0 95.5 18.5t21.5 85.5v41h76v-385h-76v62q0 59 -24.5 74.5t-106.5 15.5h-393v-588h585q59 0 73.5 21.5t14.5 83.5v88h92v-281h-1028v72h50q61 0 74.5 20.5t13.5 77.5v1069q0 35 -3.5 49.5 t-22.5 26.5t-62 12h-50v72zM465 1772h157l136 -262h-80z" />
<glyph unicode="&#xc9;" horiz-adv-x="1216" d="M102 1399h1004v-295h-92v115q0 59 -23.5 73.5t-111.5 14.5h-514v-543h407q74 0 95.5 18.5t21.5 85.5v41h76v-385h-76v62q0 59 -24.5 74.5t-106.5 15.5h-393v-588h585q59 0 73.5 21.5t14.5 83.5v88h92v-281h-1028v72h50q61 0 74.5 20.5t13.5 77.5v1069q0 35 -3.5 49.5 t-22.5 26.5t-62 12h-50v72zM658 1772h157l-213 -262h-80z" />
<glyph unicode="&#xca;" horiz-adv-x="1216" d="M102 1399h1004v-295h-92v115q0 59 -23.5 73.5t-111.5 14.5h-514v-543h407q74 0 95.5 18.5t21.5 85.5v41h76v-385h-76v62q0 59 -24.5 74.5t-106.5 15.5h-393v-588h585q59 0 73.5 21.5t14.5 83.5v88h92v-281h-1028v72h50q61 0 74.5 20.5t13.5 77.5v1069q0 35 -3.5 49.5 t-22.5 26.5t-62 12h-50v72zM499 1510h-104l199 262h116l195 -262h-111l-147 194z" />
<glyph unicode="&#xcb;" horiz-adv-x="1216" d="M102 1399h1004v-295h-92v115q0 59 -23.5 73.5t-111.5 14.5h-514v-543h407q74 0 95.5 18.5t21.5 85.5v41h76v-385h-76v62q0 59 -24.5 74.5t-106.5 15.5h-393v-588h585q59 0 73.5 21.5t14.5 83.5v88h92v-281h-1028v72h50q61 0 74.5 20.5t13.5 77.5v1069q0 35 -3.5 49.5 t-22.5 26.5t-62 12h-50v72zM469 1663q33 0 54.5 -22.5t21.5 -55t-23 -54t-53 -21.5q-33 0 -54.5 22.5t-21.5 53t21.5 54t54.5 23.5zM831 1663q31 0 53.5 -22.5t22.5 -55t-22.5 -54t-53 -21.5t-53.5 21.5t-23 54t21.5 55t54.5 22.5z" />
<glyph unicode="&#xcc;" horiz-adv-x="661" d="M129 1399h403v-72h-32q-76 0 -91.5 -20.5t-15.5 -102.5v-1005q0 -88 14.5 -107.5t92.5 -19.5h32v-72h-403v72h41q72 0 85 17t13 95v1037q0 70 -14 88t-84 18h-41v72zM146 1772h157l136 -262h-80z" />
<glyph unicode="&#xcd;" horiz-adv-x="661" d="M129 1399h403v-72h-32q-76 0 -91.5 -20.5t-15.5 -102.5v-1005q0 -88 14.5 -107.5t92.5 -19.5h32v-72h-403v72h41q72 0 85 17t13 95v1037q0 70 -14 88t-84 18h-41v72zM359 1772h157l-213 -262h-80z" />
<glyph unicode="&#xce;" horiz-adv-x="661" d="M129 1399h403v-72h-32q-76 0 -91.5 -20.5t-15.5 -102.5v-1005q0 -88 14.5 -107.5t92.5 -19.5h32v-72h-403v72h41q72 0 85 17t13 95v1037q0 70 -14 88t-84 18h-41v72zM180 1510h-104l199 262h116l195 -262h-111l-147 194z" />
<glyph unicode="&#xcf;" horiz-adv-x="661" d="M129 1399h403v-72h-32q-76 0 -91.5 -20.5t-15.5 -102.5v-1005q0 -88 14.5 -107.5t92.5 -19.5h32v-72h-403v72h41q72 0 85 17t13 95v1037q0 70 -14 88t-84 18h-41v72zM150 1663q33 0 54.5 -22.5t21.5 -55t-23 -54t-53 -21.5q-33 0 -54.5 22.5t-21.5 53t21.5 54t54.5 23.5z M512 1663q31 0 53.5 -22.5t22.5 -55t-22.5 -54t-53 -21.5t-53.5 21.5t-23 54t21.5 55t54.5 22.5z" />
<glyph unicode="&#xd0;" horiz-adv-x="1472" d="M233 655h-139v88h139v482q0 59 -15 80.5t-83 21.5h-41v72h578q117 0 193.5 -9.5t175 -53.5t169.5 -128q156 -180 156 -508q0 -127 -30.5 -241.5t-99.5 -222t-202 -172t-315 -64.5h-625v72h49q63 0 76.5 19.5t13.5 96.5v467zM713 655h-355v-567h324q203 0 315 68 q98 59 155.5 177t69 203t11.5 169q0 299 -162 469q-76 78 -169 105.5t-261 27.5h-283v-564h355v-88z" />
<glyph unicode="&#xd1;" horiz-adv-x="1449" d="M92 1399h334l725 -1225h4v1045q0 72 -16.5 90t-89.5 18h-35v72h377v-72h-39q-68 0 -83.5 -20.5t-15.5 -87.5v-1237h-133l-788 1323h-4v-1125q0 -70 14 -89t84 -19h41v-72h-375v72h55q59 0 70.5 20.5t11.5 97.5v1045q0 61 -14 76.5t-78 15.5h-45v72zM917 1678h91 q0 -70 -44 -120t-122 -50q-55 0 -142 45q-66 37 -92 37q-57 0 -71 -80h-95q6 59 31 97t58.5 52.5t51 17.5t33.5 3q57 0 127 -41q70 -39 101 -39q61 0 73 78z" />
<glyph unicode="&#xd2;" horiz-adv-x="1536" d="M106 694q0 344 189.5 542t474.5 198q305 0 482.5 -203t177.5 -524q0 -319 -183.5 -531.5t-488.5 -212.5q-123 0 -234.5 42t-207 126t-153 229.5t-57.5 333.5zM246 696q0 -307 135 -460q143 -168 389 -168q229 0 373.5 165.5t144.5 487.5q0 293 -141 451.5t-377 158.5 q-242 0 -383 -162q-141 -160 -141 -473zM584 1772h157l136 -262h-80z" />
<glyph unicode="&#xd3;" horiz-adv-x="1536" d="M106 694q0 344 189.5 542t474.5 198q305 0 482.5 -203t177.5 -524q0 -319 -183.5 -531.5t-488.5 -212.5q-123 0 -234.5 42t-207 126t-153 229.5t-57.5 333.5zM246 696q0 -307 135 -460q143 -168 389 -168q229 0 373.5 165.5t144.5 487.5q0 293 -141 451.5t-377 158.5 q-242 0 -383 -162q-141 -160 -141 -473zM797 1772h157l-213 -262h-80z" />
<glyph unicode="&#xd4;" horiz-adv-x="1536" d="M106 694q0 344 189.5 542t474.5 198q305 0 482.5 -203t177.5 -524q0 -319 -183.5 -531.5t-488.5 -212.5q-123 0 -234.5 42t-207 126t-153 229.5t-57.5 333.5zM246 696q0 -307 135 -460q143 -168 389 -168q229 0 373.5 165.5t144.5 487.5q0 293 -141 451.5t-377 158.5 q-242 0 -383 -162q-141 -160 -141 -473zM618 1510h-104l199 262h116l195 -262h-111l-147 194z" />
<glyph unicode="&#xd5;" horiz-adv-x="1536" d="M106 694q0 344 189.5 542t474.5 198q305 0 482.5 -203t177.5 -524q0 -319 -183.5 -531.5t-488.5 -212.5q-123 0 -234.5 42t-207 126t-153 229.5t-57.5 333.5zM246 696q0 -307 135 -460q143 -168 389 -168q229 0 373.5 165.5t144.5 487.5q0 293 -141 451.5t-377 158.5 q-242 0 -383 -162q-141 -160 -141 -473zM960 1678h91q0 -70 -44 -120t-122 -50q-55 0 -142 45q-66 37 -92 37q-57 0 -71 -80h-95q6 59 31 97t58.5 52.5t51 17.5t33.5 3q57 0 127 -41q70 -39 101 -39q61 0 73 78z" />
<glyph unicode="&#xd6;" horiz-adv-x="1536" d="M106 694q0 344 189.5 542t474.5 198q305 0 482.5 -203t177.5 -524q0 -319 -183.5 -531.5t-488.5 -212.5q-123 0 -234.5 42t-207 126t-153 229.5t-57.5 333.5zM246 696q0 -307 135 -460q143 -168 389 -168q229 0 373.5 165.5t144.5 487.5q0 293 -141 451.5t-377 158.5 q-242 0 -383 -162q-141 -160 -141 -473zM588 1663q33 0 54.5 -22.5t21.5 -55t-23 -54t-53 -21.5q-33 0 -54.5 22.5t-21.5 53t21.5 54t54.5 23.5zM950 1663q31 0 53.5 -22.5t22.5 -55t-22.5 -54t-53 -21.5t-53.5 21.5t-23 54t21.5 55t54.5 22.5z" />
<glyph unicode="&#xd7;" horiz-adv-x="1366" d="M193 1075l75 76l416 -418l418 418l76 -76l-418 -418l411 -411l-75 -76l-412 412l-412 -412l-75 76l413 411z" />
<glyph unicode="&#xd8;" horiz-adv-x="1536" d="M319 129l-165 -180l-76 67l172 189q-143 193 -144 485q0 348 190.5 546t473.5 198q268 0 447 -166q4 0 4 -4l168 182l75 -68l-174 -190q139 -193 140 -483q0 -315 -182.5 -528.5t-489.5 -213.5q-259 0 -439 166zM1202 1092l-803 -875q141 -150 371 -149 q231 0 374.5 167.5t143.5 481.5q0 213 -86 375zM336 297l805 881q-137 154 -371 153q-106 0 -191 -30.5t-139.5 -74.5t-93.5 -110.5t-57.5 -121t-29.5 -123t-12 -101.5t-1 -70q0 -253 90 -403z" />
<glyph unicode="&#xd9;" horiz-adv-x="1449" d="M61 1399h406v-72h-45q-66 0 -79 -20.5t-13 -98.5v-708q0 -74 9 -134.5t36.5 -120t70.5 -98t117 -63.5t170 -25q109 0 187.5 28t120.5 68t65.5 100t30 108.5t6.5 109.5v735q0 78 -13.5 98.5t-78.5 20.5h-45v72h383v-72h-50q-61 0 -74.5 -20.5t-13.5 -81.5v-738 q0 -236 -90 -346q-143 -178 -430 -178q-305 0 -450 191q-76 100 -76 333v738q0 61 -18.5 81.5t-92.5 20.5h-33v72zM541 1772h157l136 -262h-80z" />
<glyph unicode="&#xda;" horiz-adv-x="1449" d="M61 1399h406v-72h-45q-66 0 -79 -20.5t-13 -98.5v-708q0 -74 9 -134.5t36.5 -120t70.5 -98t117 -63.5t170 -25q109 0 187.5 28t120.5 68t65.5 100t30 108.5t6.5 109.5v735q0 78 -13.5 98.5t-78.5 20.5h-45v72h383v-72h-50q-61 0 -74.5 -20.5t-13.5 -81.5v-738 q0 -236 -90 -346q-143 -178 -430 -178q-305 0 -450 191q-76 100 -76 333v738q0 61 -18.5 81.5t-92.5 20.5h-33v72zM754 1772h157l-213 -262h-80z" />
<glyph unicode="&#xdb;" horiz-adv-x="1449" d="M61 1399h406v-72h-45q-66 0 -79 -20.5t-13 -98.5v-708q0 -74 9 -134.5t36.5 -120t70.5 -98t117 -63.5t170 -25q109 0 187.5 28t120.5 68t65.5 100t30 108.5t6.5 109.5v735q0 78 -13.5 98.5t-78.5 20.5h-45v72h383v-72h-50q-61 0 -74.5 -20.5t-13.5 -81.5v-738 q0 -236 -90 -346q-143 -178 -430 -178q-305 0 -450 191q-76 100 -76 333v738q0 61 -18.5 81.5t-92.5 20.5h-33v72zM575 1510h-104l199 262h116l195 -262h-111l-147 194z" />
<glyph unicode="&#xdc;" horiz-adv-x="1449" d="M61 1399h406v-72h-45q-66 0 -79 -20.5t-13 -98.5v-708q0 -74 9 -134.5t36.5 -120t70.5 -98t117 -63.5t170 -25q109 0 187.5 28t120.5 68t65.5 100t30 108.5t6.5 109.5v735q0 78 -13.5 98.5t-78.5 20.5h-45v72h383v-72h-50q-61 0 -74.5 -20.5t-13.5 -81.5v-738 q0 -236 -90 -346q-143 -178 -430 -178q-305 0 -450 191q-76 100 -76 333v738q0 61 -18.5 81.5t-92.5 20.5h-33v72zM545 1663q33 0 54.5 -22.5t21.5 -55t-23 -54t-53 -21.5q-33 0 -54.5 22.5t-21.5 53t21.5 54t54.5 23.5zM907 1663q31 0 53.5 -22.5t22.5 -55t-22.5 -54 t-53 -21.5t-53.5 21.5t-23 54t21.5 55t54.5 22.5z" />
<glyph unicode="&#xdd;" horiz-adv-x="1323" d="M16 1399h418v-72h-35q-82 0 -82 -33q0 -18 37 -80l322 -550l315 495q66 106 66 137t-84 31h-62v72h396v-72q-76 0 -103.5 -14.5t-68.5 -79.5l-416 -672v-383q0 -70 15.5 -88t92.5 -18h39v-72h-420v72h50q61 0 78.5 17t17.5 89v373l-389 663q-27 45 -41.5 63.5t-42 34 t-68.5 15.5h-35v72zM691 1772h157l-213 -262h-80z" />
<glyph unicode="&#xde;" horiz-adv-x="1193" d="M516 1399v-72h-37q-41 0 -58.5 -1t-33.5 -10t-21.5 -26.5t-5.5 -50.5v-166h285q37 0 61.5 -1t76 -8t87 -19.5t79.5 -39t72 -64.5t47 -97.5t19 -134.5q0 -100 -41.5 -187.5t-119.5 -136.5q-104 -63 -295 -63h-271v-160q0 -63 21.5 -76.5t97.5 -13.5h37v-72h-416v72h35 q74 0 87.5 15t13.5 89v1055q0 37 -1.5 46t-9.5 26.5t-29.5 20.5t-60.5 3h-35v72h416zM360 983v-571h218q43 0 69.5 2t78.5 8t87 25.5t72 48t55 81t18 119.5q0 82 -26.5 139.5t-60 85t-88 43t-83 17.5t-71.5 2h-269z" />
<glyph unicode="&#xdf;" horiz-adv-x="1067" d="M268 0h-241v66h49q78 0 80 49l2 47v817q0 195 51 287q47 82 137 125t197 43q150 0 260 -82t110 -246q0 -84 -24.5 -145.5t-69.5 -98.5t-73.5 -51t-69.5 -31v-4q299 -41 299 -356q0 -74 -18.5 -144.5t-58.5 -138t-118 -109.5t-182 -42q-90 0 -178 34v187h80q0 -27 2 -42 t12 -42t39 -41t74 -14q66 0 113.5 31.5t72.5 85t35 105.5t10 107q0 66 -14.5 118t-33.5 85t-54 55.5t-61.5 33.5t-68.5 17.5t-64.5 7.5t-61.5 1v108q293 6 293 271q0 68 -22.5 118t-52.5 75.5t-71 39.5t-65.5 17.5t-49.5 3.5q-72 0 -124 -27t-78.5 -62.5t-41 -93 t-17.5 -97.5t-3 -95v-973z" />
<glyph unicode="&#xe0;" horiz-adv-x="980" d="M164 702v183q156 100 311 100q59 0 115.5 -13.5t113 -54t72.5 -106.5q14 -51 15 -195v-403q0 -94 9 -119.5t46 -25.5q29 0 86 28v-71q-98 -49 -144 -50q-109 0 -108 164h-4q-106 -164 -295 -164q-66 0 -126 19.5t-113.5 84t-53.5 165.5q0 178 135 258q55 33 119 51 t260 68q49 8 80 20q0 45 -1 69.5t-12.5 68.5t-32 67.5t-63.5 43t-104 19.5q-211 0 -211 -170v-37h-94zM682 399v158q-274 -63 -375.5 -118.5t-101.5 -178.5q0 -90 58.5 -136t139.5 -46q68 0 132.5 32.5t103.5 92.5q43 67 43 196zM306 1358h157l136 -262h-80z" />
<glyph unicode="&#xe1;" horiz-adv-x="980" d="M164 702v183q156 100 311 100q59 0 115.5 -13.5t113 -54t72.5 -106.5q14 -51 15 -195v-403q0 -94 9 -119.5t46 -25.5q29 0 86 28v-71q-98 -49 -144 -50q-109 0 -108 164h-4q-106 -164 -295 -164q-66 0 -126 19.5t-113.5 84t-53.5 165.5q0 178 135 258q55 33 119 51 t260 68q49 8 80 20q0 45 -1 69.5t-12.5 68.5t-32 67.5t-63.5 43t-104 19.5q-211 0 -211 -170v-37h-94zM682 399v158q-274 -63 -375.5 -118.5t-101.5 -178.5q0 -90 58.5 -136t139.5 -46q68 0 132.5 32.5t103.5 92.5q43 67 43 196zM519 1358h157l-213 -262h-80z" />
<glyph unicode="&#xe2;" horiz-adv-x="980" d="M164 702v183q156 100 311 100q59 0 115.5 -13.5t113 -54t72.5 -106.5q14 -51 15 -195v-403q0 -94 9 -119.5t46 -25.5q29 0 86 28v-71q-98 -49 -144 -50q-109 0 -108 164h-4q-106 -164 -295 -164q-66 0 -126 19.5t-113.5 84t-53.5 165.5q0 178 135 258q55 33 119 51 t260 68q49 8 80 20q0 45 -1 69.5t-12.5 68.5t-32 67.5t-63.5 43t-104 19.5q-211 0 -211 -170v-37h-94zM682 399v158q-274 -63 -375.5 -118.5t-101.5 -178.5q0 -90 58.5 -136t139.5 -46q68 0 132.5 32.5t103.5 92.5q43 67 43 196zM340 1096h-104l199 262h116l195 -262h-111 l-147 194z" />
<glyph unicode="&#xe3;" horiz-adv-x="980" d="M164 702v183q156 100 311 100q59 0 115.5 -13.5t113 -54t72.5 -106.5q14 -51 15 -195v-403q0 -94 9 -119.5t46 -25.5q29 0 86 28v-71q-98 -49 -144 -50q-109 0 -108 164h-4q-106 -164 -295 -164q-66 0 -126 19.5t-113.5 84t-53.5 165.5q0 178 135 258q55 33 119 51 t260 68q49 8 80 20q0 45 -1 69.5t-12.5 68.5t-32 67.5t-63.5 43t-104 19.5q-211 0 -211 -170v-37h-94zM682 399v158q-274 -63 -375.5 -118.5t-101.5 -178.5q0 -90 58.5 -136t139.5 -46q68 0 132.5 32.5t103.5 92.5q43 67 43 196zM682 1264h91q0 -70 -44 -120t-122 -50 q-55 0 -142 45q-66 37 -92 37q-57 0 -71 -80h-95q6 59 31 97t58.5 52.5t51 17.5t33.5 3q57 0 127 -41q70 -39 101 -39q61 0 73 78z" />
<glyph unicode="&#xe4;" horiz-adv-x="980" d="M164 702v183q156 100 311 100q59 0 115.5 -13.5t113 -54t72.5 -106.5q14 -51 15 -195v-403q0 -94 9 -119.5t46 -25.5q29 0 86 28v-71q-98 -49 -144 -50q-109 0 -108 164h-4q-106 -164 -295 -164q-66 0 -126 19.5t-113.5 84t-53.5 165.5q0 178 135 258q55 33 119 51 t260 68q49 8 80 20q0 45 -1 69.5t-12.5 68.5t-32 67.5t-63.5 43t-104 19.5q-211 0 -211 -170v-37h-94zM682 399v158q-274 -63 -375.5 -118.5t-101.5 -178.5q0 -90 58.5 -136t139.5 -46q68 0 132.5 32.5t103.5 92.5q43 67 43 196zM310 1249q33 0 54.5 -22.5t21.5 -55t-23 -54 t-53 -21.5q-33 0 -54.5 22.5t-21.5 53t21.5 54t54.5 23.5zM672 1249q31 0 53.5 -22.5t22.5 -55t-22.5 -54t-53 -21.5t-53.5 21.5t-23 54t21.5 55t54.5 22.5z" />
<glyph unicode="&#xe5;" horiz-adv-x="980" d="M164 702v183q156 100 311 100q59 0 115.5 -13.5t113 -54t72.5 -106.5q14 -51 15 -195v-403q0 -94 9 -119.5t46 -25.5q29 0 86 28v-71q-98 -49 -144 -50q-109 0 -108 164h-4q-106 -164 -295 -164q-66 0 -126 19.5t-113.5 84t-53.5 165.5q0 178 135 258q55 33 119 51 t260 68q49 8 80 20q0 45 -1 69.5t-12.5 68.5t-32 67.5t-63.5 43t-104 19.5q-211 0 -211 -170v-37h-94zM682 399v158q-274 -63 -375.5 -118.5t-101.5 -178.5q0 -90 58.5 -136t139.5 -46q68 0 132.5 32.5t103.5 92.5q43 67 43 196zM492 1448q72 0 124 -52.5t52 -124 t-52 -123.5t-124 -52q-74 0 -126 51t-52 125t52 125t126 51zM490 1386q-45 0 -80 -33.5t-35 -80.5q0 -49 34 -83t81 -34t81 34t34 83t-34 81.5t-81 32.5z" />
<glyph unicode="&#xe6;" horiz-adv-x="1536" d="M1460 520h-682q0 -199 62 -301q90 -147 256 -147q74 0 144.5 28.5t107 55t96.5 77.5v-116q-57 -47 -90 -70.5t-106.5 -49.5t-157.5 -26q-238 0 -359 203q-25 -41 -42 -64.5t-58 -61.5t-100.5 -57.5t-137.5 -19.5q-96 0 -162.5 30t-96.5 78t-41 88t-11 79q0 82 38 147.5 t89 98.5q63 41 139 64.5t258 66.5l74 16q0 51 -2 77.5t-13.5 69.5t-33 65.5t-63.5 40t-103 17.5q-76 0 -123 -20.5t-64.5 -58t-21.5 -63.5t-2 -65h-94v183q158 100 313 100q74 0 130 -16.5t89 -47t47.5 -50t28.5 -50.5q37 45 64.5 72t98 59.5t157 32.5t154 -26.5t105 -73.5 t63.5 -95.5t35 -108.5t12 -92t3 -69zM793 596h553q-2 31 -6.5 57.5t-20.5 75.5t-42 84t-78 61.5t-120 26.5q-239 0 -286 -305zM680 395v160q-266 -61 -371.5 -117.5t-105.5 -177.5q0 -23 5 -48.5t22.5 -62t61.5 -60t109 -23.5q147 0 230 112q49 70 49 217z" />
<glyph unicode="&#xe7;" horiz-adv-x="960" d="M537 -27l-17 -51q88 -4 125 -50t37 -93q0 -20 -8 -44t-28.5 -52.5t-68 -46t-112.5 -17.5q-82 0 -166 27v80q74 -23 143 -23q123 0 123 76q0 80 -153 74l34 124q-137 16 -242.5 137.5t-105.5 342.5q0 141 43 247.5t114 165t147.5 87t158.5 28.5q119 0 299 -78v-266h-98v88 q0 31 -5 55.5t-24.5 54t-67 47t-118.5 17.5q-94 0 -162 -43t-101.5 -112.5t-48 -137t-14.5 -137.5q0 -115 31 -196.5t81 -122.5t100 -59.5t102 -18.5q166 0 325 141v-117q-159 -121 -323 -127z" />
<glyph unicode="&#xe8;" horiz-adv-x="980" d="M899 520h-684q2 -78 6 -125t34 -126t87 -128q84 -74 199 -73q164 0 340 161v-112q-43 -41 -77 -65.5t-111 -52.5t-167 -28q-199 0 -314.5 135.5t-115.5 356.5q0 145 41 253.5t107.5 164t136.5 80t143 24.5q367 0 375 -465zM229 598h549q-18 307 -258 307 q-102 0 -184 -68.5t-107 -238.5zM306 1358h157l136 -262h-80z" />
<glyph unicode="&#xe9;" horiz-adv-x="980" d="M899 520h-684q2 -78 6 -125t34 -126t87 -128q84 -74 199 -73q164 0 340 161v-112q-43 -41 -77 -65.5t-111 -52.5t-167 -28q-199 0 -314.5 135.5t-115.5 356.5q0 145 41 253.5t107.5 164t136.5 80t143 24.5q367 0 375 -465zM229 598h549q-18 307 -258 307 q-102 0 -184 -68.5t-107 -238.5zM519 1358h157l-213 -262h-80z" />
<glyph unicode="&#xea;" horiz-adv-x="980" d="M899 520h-684q2 -78 6 -125t34 -126t87 -128q84 -74 199 -73q164 0 340 161v-112q-43 -41 -77 -65.5t-111 -52.5t-167 -28q-199 0 -314.5 135.5t-115.5 356.5q0 145 41 253.5t107.5 164t136.5 80t143 24.5q367 0 375 -465zM229 598h549q-18 307 -258 307 q-102 0 -184 -68.5t-107 -238.5zM340 1096h-104l199 262h116l195 -262h-111l-147 194z" />
<glyph unicode="&#xeb;" horiz-adv-x="980" d="M899 520h-684q2 -78 6 -125t34 -126t87 -128q84 -74 199 -73q164 0 340 161v-112q-43 -41 -77 -65.5t-111 -52.5t-167 -28q-199 0 -314.5 135.5t-115.5 356.5q0 145 41 253.5t107.5 164t136.5 80t143 24.5q367 0 375 -465zM229 598h549q-18 307 -258 307 q-102 0 -184 -68.5t-107 -238.5zM310 1249q33 0 54.5 -22.5t21.5 -55t-23 -54t-53 -21.5q-33 0 -54.5 22.5t-21.5 53t21.5 54t54.5 23.5zM672 1249q31 0 53.5 -22.5t22.5 -55t-22.5 -54t-53 -21.5t-53.5 21.5t-23 54t21.5 55t54.5 22.5z" />
<glyph unicode="&#xec;" horiz-adv-x="468" d="M39 944l250 27v-819q0 -63 9 -74.5t62 -11.5h43v-66h-342v66h37q61 0 71.5 14t10.5 98v590q0 76 -8 96.5t-47 20.5q-2 0 -86 -6v65zM50 1358h157l136 -262h-80z" />
<glyph unicode="&#xed;" horiz-adv-x="468" d="M39 944l250 27v-819q0 -63 9 -74.5t62 -11.5h43v-66h-342v66h37q61 0 71.5 14t10.5 98v590q0 76 -8 96.5t-47 20.5q-2 0 -86 -6v65zM263 1358h157l-213 -262h-80z" />
<glyph unicode="&#xee;" horiz-adv-x="468" d="M39 944l250 27v-819q0 -63 9 -74.5t62 -11.5h43v-66h-342v66h37q61 0 71.5 14t10.5 98v590q0 76 -8 96.5t-47 20.5q-2 0 -86 -6v65zM84 1096h-104l199 262h116l195 -262h-111l-147 194z" />
<glyph unicode="&#xef;" horiz-adv-x="468" d="M39 944l250 27v-819q0 -63 9 -74.5t62 -11.5h43v-66h-342v66h37q61 0 71.5 14t10.5 98v590q0 76 -8 96.5t-47 20.5q-2 0 -86 -6v65zM54 1249q33 0 54.5 -22.5t21.5 -55t-23 -54t-53 -21.5q-33 0 -54.5 22.5t-21.5 53t21.5 54t54.5 23.5zM416 1249q31 0 53.5 -22.5 t22.5 -55t-22.5 -54t-53 -21.5t-53.5 21.5t-23 54t21.5 55t54.5 22.5z" />
<glyph unicode="&#xf0;" horiz-adv-x="1110" d="M303 1364l43 70q78 -37 207 -125l219 125l43 -80l-188 -107q383 -319 383 -749q0 -250 -127 -388.5t-344 -138.5q-102 0 -183.5 34t-128.5 84t-77.5 117.5t-42 128t-11.5 122.5q0 233 128 365t317 132q113 0 227 -61l4 4q-41 78 -87 138.5t-150 160.5l-232 -131l-47 76 l205 116l-37 27q-35 29 -96 64zM559 868q-53 0 -106.5 -17t-109.5 -59t-91 -128t-35 -205q0 -201 96 -307q86 -94 238 -95q119 0 196.5 66.5t106.5 152.5t29 185q0 172 -86 289.5t-238 117.5z" />
<glyph unicode="&#xf1;" horiz-adv-x="1044" d="M29 932l231 26q18 -80 19 -151h4q27 43 52 72.5t94 63.5t157 34q184 0 266 -133q35 -61 35 -217v-490q0 -53 11 -62t69 -9h37v-66h-351v66q68 0 84.5 2t24.5 16q10 14 10 90v449q0 41 -2 66.5t-12 66.5t-31.5 65.5t-63.5 43t-102 18.5q-154 0 -239 -129 q-12 -18 -20.5 -45t-11.5 -55.5t-5 -50t-2 -48.5v-33v-358q0 -74 9 -86t68 -12h37v-66h-338v66h37q53 0 64.5 16t11.5 82v608q0 45 -2 62.5t-15.5 28.5t-41.5 11q-27 0 -84 -6v64zM714 1264h91q0 -70 -44 -120t-122 -50q-55 0 -142 45q-66 37 -92 37q-57 0 -71 -80h-95 q6 59 31 97t58.5 52.5t51 17.5t33.5 3q57 0 127 -41q70 -39 101 -39q61 0 73 78z" />
<glyph unicode="&#xf2;" horiz-adv-x="1087" d="M553 985q119 0 208 -43t138 -114.5t72.5 -153.5t23.5 -170q0 -295 -168 -434q-121 -98 -288 -99q-184 0 -315.5 120t-131.5 368q0 262 132 394t329 132zM541 897q-31 0 -64 -6t-83 -33t-88 -70t-65.5 -126.5t-27.5 -194.5q0 -106 28.5 -187t68.5 -121t92.5 -64.5t85 -30 t63.5 -5.5q49 0 97 15.5t102.5 56.5t88 130t33.5 218q0 29 -2 54.5t-10 81t-29.5 98.5t-55.5 88t-95 70.5t-139 25.5zM359 1358h157l136 -262h-80z" />
<glyph unicode="&#xf3;" horiz-adv-x="1087" d="M553 985q119 0 208 -43t138 -114.5t72.5 -153.5t23.5 -170q0 -295 -168 -434q-121 -98 -288 -99q-184 0 -315.5 120t-131.5 368q0 262 132 394t329 132zM541 897q-31 0 -64 -6t-83 -33t-88 -70t-65.5 -126.5t-27.5 -194.5q0 -106 28.5 -187t68.5 -121t92.5 -64.5t85 -30 t63.5 -5.5q49 0 97 15.5t102.5 56.5t88 130t33.5 218q0 29 -2 54.5t-10 81t-29.5 98.5t-55.5 88t-95 70.5t-139 25.5zM572 1358h157l-213 -262h-80z" />
<glyph unicode="&#xf4;" horiz-adv-x="1087" d="M553 985q119 0 208 -43t138 -114.5t72.5 -153.5t23.5 -170q0 -295 -168 -434q-121 -98 -288 -99q-184 0 -315.5 120t-131.5 368q0 262 132 394t329 132zM541 897q-31 0 -64 -6t-83 -33t-88 -70t-65.5 -126.5t-27.5 -194.5q0 -106 28.5 -187t68.5 -121t92.5 -64.5t85 -30 t63.5 -5.5q49 0 97 15.5t102.5 56.5t88 130t33.5 218q0 29 -2 54.5t-10 81t-29.5 98.5t-55.5 88t-95 70.5t-139 25.5zM393 1096h-104l199 262h116l195 -262h-111l-147 194z" />
<glyph unicode="&#xf5;" horiz-adv-x="1087" d="M553 985q119 0 208 -43t138 -114.5t72.5 -153.5t23.5 -170q0 -295 -168 -434q-121 -98 -288 -99q-184 0 -315.5 120t-131.5 368q0 262 132 394t329 132zM541 897q-31 0 -64 -6t-83 -33t-88 -70t-65.5 -126.5t-27.5 -194.5q0 -106 28.5 -187t68.5 -121t92.5 -64.5t85 -30 t63.5 -5.5q49 0 97 15.5t102.5 56.5t88 130t33.5 218q0 29 -2 54.5t-10 81t-29.5 98.5t-55.5 88t-95 70.5t-139 25.5zM735 1264h91q0 -70 -44 -120t-122 -50q-55 0 -142 45q-66 37 -92 37q-57 0 -71 -80h-95q6 59 31 97t58.5 52.5t51 17.5t33.5 3q57 0 127 -41 q70 -39 101 -39q61 0 73 78z" />
<glyph unicode="&#xf6;" horiz-adv-x="1087" d="M553 985q119 0 208 -43t138 -114.5t72.5 -153.5t23.5 -170q0 -295 -168 -434q-121 -98 -288 -99q-184 0 -315.5 120t-131.5 368q0 262 132 394t329 132zM541 897q-31 0 -64 -6t-83 -33t-88 -70t-65.5 -126.5t-27.5 -194.5q0 -106 28.5 -187t68.5 -121t92.5 -64.5t85 -30 t63.5 -5.5q49 0 97 15.5t102.5 56.5t88 130t33.5 218q0 29 -2 54.5t-10 81t-29.5 98.5t-55.5 88t-95 70.5t-139 25.5zM363 1249q33 0 54.5 -22.5t21.5 -55t-23 -54t-53 -21.5q-33 0 -54.5 22.5t-21.5 53t21.5 54t54.5 23.5zM725 1249q31 0 53.5 -22.5t22.5 -55t-22.5 -54 t-53 -21.5t-53.5 21.5t-23 54t21.5 55t54.5 22.5z" />
<glyph unicode="&#xf7;" horiz-adv-x="1366" d="M610 258q0 29 21.5 47.5t50.5 18.5t50.5 -20.5t21.5 -51.5q0 -29 -20.5 -50.5t-49.5 -21.5q-31 0 -52.5 23.5t-21.5 54.5zM610 1071q0 29 21.5 47.5t50.5 18.5t50.5 -20.5t21.5 -51.5q0 -29 -20.5 -50.5t-49.5 -21.5q-31 0 -52.5 23.5t-21.5 54.5zM145 713h1074v-109 h-1074v109z" />
<glyph unicode="&#xf8;" horiz-adv-x="1087" d="M238 78l-119 -129l-66 59l125 137q-86 121 -86 314q0 262 132 394t329 132q190 0 301 -108l117 124l63 -59l-123 -133q84 -125 84 -303q0 -297 -168 -436q-121 -98 -288 -99q-182 1 -301 107zM827 721l-516 -561q100 -100 240 -101q49 0 97 15.5t102.5 56.5t88 130 t33.5 218q0 146 -45 242zM260 233l520 562q-90 102 -235 102q-39 0 -77 -9t-86 -37t-84 -73t-60.5 -126t-24.5 -185q0 -140 47 -234z" />
<glyph unicode="&#xf9;" d="M4 948l252 23v-584q0 -111 8 -158t37 -84q59 -72 164 -71q78 0 143.5 36.5t102.5 100.5q43 76 43 254v313q0 49 -3 67.5t-18.5 31t-50.5 12.5q-33 0 -70 -4v63l252 23v-789q0 -68 10.5 -83t51.5 -15q2 0 75 6v-65l-231 -25q-14 57 -14 141h-4q-39 -53 -66 -81.5 t-92.5 -58.5t-151.5 -30q-164 0 -252 117q-49 70 -49 231v472q0 72 -18 87q-12 10 -59 10q-25 0 -60 -3v63zM328 1358h157l136 -262h-80z" />
<glyph unicode="&#xfa;" d="M4 948l252 23v-584q0 -111 8 -158t37 -84q59 -72 164 -71q78 0 143.5 36.5t102.5 100.5q43 76 43 254v313q0 49 -3 67.5t-18.5 31t-50.5 12.5q-33 0 -70 -4v63l252 23v-789q0 -68 10.5 -83t51.5 -15q2 0 75 6v-65l-231 -25q-14 57 -14 141h-4q-39 -53 -66 -81.5 t-92.5 -58.5t-151.5 -30q-164 0 -252 117q-49 70 -49 231v472q0 72 -18 87q-12 10 -59 10q-25 0 -60 -3v63zM541 1358h157l-213 -262h-80z" />
<glyph unicode="&#xfb;" d="M4 948l252 23v-584q0 -111 8 -158t37 -84q59 -72 164 -71q78 0 143.5 36.5t102.5 100.5q43 76 43 254v313q0 49 -3 67.5t-18.5 31t-50.5 12.5q-33 0 -70 -4v63l252 23v-789q0 -68 10.5 -83t51.5 -15q2 0 75 6v-65l-231 -25q-14 57 -14 141h-4q-39 -53 -66 -81.5 t-92.5 -58.5t-151.5 -30q-164 0 -252 117q-49 70 -49 231v472q0 72 -18 87q-12 10 -59 10q-25 0 -60 -3v63zM362 1096h-104l199 262h116l195 -262h-111l-147 194z" />
<glyph unicode="&#xfc;" d="M4 948l252 23v-584q0 -111 8 -158t37 -84q59 -72 164 -71q78 0 143.5 36.5t102.5 100.5q43 76 43 254v313q0 49 -3 67.5t-18.5 31t-50.5 12.5q-33 0 -70 -4v63l252 23v-789q0 -68 10.5 -83t51.5 -15q2 0 75 6v-65l-231 -25q-14 57 -14 141h-4q-39 -53 -66 -81.5 t-92.5 -58.5t-151.5 -30q-164 0 -252 117q-49 70 -49 231v472q0 72 -18 87q-12 10 -59 10q-25 0 -60 -3v63zM332 1249q33 0 54.5 -22.5t21.5 -55t-23 -54t-53 -21.5q-33 0 -54.5 22.5t-21.5 53t21.5 54t54.5 23.5zM694 1249q31 0 53.5 -22.5t22.5 -55t-22.5 -54t-53 -21.5 t-53.5 21.5t-23 54t21.5 55t54.5 22.5z" />
<glyph unicode="&#xfd;" horiz-adv-x="980" d="M-6 958h366v-65h-55q-55 0 -55 -41q0 -16 29 -88l223 -602l239 645q12 37 13 43q0 43 -78 43h-33v65h330v-65h-27q-49 0 -70.5 -20.5t-52.5 -102.5l-354 -942q-6 -12 -12 -31q-20 -55 -34.5 -85.5t-46.5 -75t-81 -66t-115 -21.5q-70 0 -139 35v162h88q0 -49 2 -69.5 t17.5 -36t48.5 -15.5q113 0 170 172l10 31l65 172l-288 756q-29 78 -54.5 107.5t-74.5 29.5h-31v65zM519 1358h157l-213 -262h-80z" />
<glyph unicode="&#xfe;" horiz-adv-x="1067" d="M39 -432v63h33q70 0 78 21q4 8 4 100v1485v14q0 39 -2 54.5t-13.5 25.5t-38.5 10q-47 0 -75 -4v66l243 31v-615q4 0 4 4q37 43 65 69t96.5 55.5t150.5 29.5q170 0 283.5 -123t113.5 -348q0 -137 -44 -255t-141.5 -197t-234.5 -79q-184 0 -291 146h-6v-385 q0 -74 11.5 -89.5t70.5 -15.5h53v-63h-360zM559 887q-127 0 -216 -103.5t-89 -316.5q0 -172 74.5 -286.5t224.5 -114.5q98 0 164.5 47t94.5 121.5t38 132t10 114.5q0 63 -12 127t-43 130.5t-94.5 107.5t-151.5 41z" />
<glyph unicode="&#xff;" horiz-adv-x="980" d="M-6 958h366v-65h-55q-55 0 -55 -41q0 -16 29 -88l223 -602l239 645q12 37 13 43q0 43 -78 43h-33v65h330v-65h-27q-49 0 -70.5 -20.5t-52.5 -102.5l-354 -942q-6 -12 -12 -31q-20 -55 -34.5 -85.5t-46.5 -75t-81 -66t-115 -21.5q-70 0 -139 35v162h88q0 -49 2 -69.5 t17.5 -36t48.5 -15.5q113 0 170 172l10 31l65 172l-288 756q-29 78 -54.5 107.5t-74.5 29.5h-31v65zM310 1249q33 0 54.5 -22.5t21.5 -55t-23 -54t-53 -21.5q-33 0 -54.5 22.5t-21.5 53t21.5 54t54.5 23.5zM672 1249q31 0 53.5 -22.5t22.5 -55t-22.5 -54t-53 -21.5 t-53.5 21.5t-23 54t21.5 55t54.5 22.5z" />
<glyph unicode="&#x131;" horiz-adv-x="468" d="M39 944l250 27v-819q0 -63 9 -74.5t62 -11.5h43v-66h-342v66h37q61 0 71.5 14t10.5 98v590q0 76 -8 96.5t-47 20.5q-2 0 -86 -6v65z" />
<glyph unicode="&#x141;" horiz-adv-x="1153" d="M367 760l329 250v-115l-329 -248v-561h551q53 0 69.5 17.5t16.5 84.5v113h96v-301h-998v72h43q66 0 81.5 19.5t15.5 88.5v373l-140 -104v114l140 105v567q0 55 -16.5 73.5t-80.5 18.5h-43v72h422v-72h-51q-78 0 -92 -17.5t-14 -97.5v-452z" />
<glyph unicode="&#x142;" horiz-adv-x="468" d="M287 809l151 131v-117l-151 -129v-530q0 -70 11 -84t73 -14h35v-66h-351v66h29q68 0 81 15t13 83v438l-155 -133v115l155 133v512q0 82 -11 99.5t-73 10.5l-65 -6v70l258 31v-625z" />
<glyph unicode="&#x152;" horiz-adv-x="2048" d="M1946 1399v-297h-93v102q0 68 -16 83.5t-90 15.5h-539v-539h383q90 0 116 18.5t26 91.5v35h75v-385h-75v56q0 68 -27 82t-125 14h-373v-588h555q82 0 101.5 16.5t19.5 92.5v82h90v-279h-753q-27 0 -170 -4q-139 -4 -164 -4q-322 0 -492 104q-92 57 -155.5 142.5 t-90 177.5t-36 157.5t-9.5 126.5q0 270 121 435t285 221q152 49 340 49q139 0 244 -6h852zM1077 172v1032q0 68 -18 80q-39 29 -213 29q-256 0 -381 -88q-72 -51 -121 -126t-68.5 -155t-26.5 -135t-7 -109q0 -43 5 -100t37.5 -163.5t90.5 -174.5q96 -113 229 -147.5 t307 -34.5q80 0 117 12t43 27.5t6 52.5z" />
<glyph unicode="&#x153;" horiz-adv-x="1748" d="M1667 520h-684q0 -205 64 -303q96 -143 249 -143q78 0 154 31.5t109.5 57t87.5 73.5v-117q-49 -41 -83 -65.5t-113 -53.5t-165 -29q-82 0 -146.5 22.5t-108.5 67.5t-63.5 72t-45.5 76q-16 -33 -29.5 -55.5t-47.5 -60.5t-71 -61.5t-98.5 -42t-134.5 -18.5 q-221 0 -334 140.5t-113 351.5q0 139 44 252.5t150.5 191.5t264.5 78q92 0 165 -23.5t117 -65.5t63.5 -68.5t39.5 -65.5q119 223 354 223q359 0 375 -465zM553 897q-98 0 -168 -41t-104.5 -108.5t-49 -136t-14.5 -144.5q0 -121 34 -207t89 -127t105.5 -57.5t101.5 -16.5 q143 0 236.5 108.5t93.5 317.5q0 190 -87 301t-237 111zM995 598h551q-25 303 -262 303q-41 0 -81 -13.5t-84 -44t-78 -94t-46 -151.5z" />
<glyph unicode="&#x160;" horiz-adv-x="1067" d="M924 1348v-291h-101v49q0 109 -18 143q-25 47 -100.5 70.5t-149.5 23.5q-115 0 -204 -58t-89 -179q0 -96 64.5 -164t236.5 -147q225 -104 315.5 -191.5t90.5 -255.5q0 -164 -109.5 -274.5t-339.5 -110.5q-217 0 -422 88v330h105v-80q0 -109 64.5 -175.5t250.5 -66.5 q162 0 241 82t79 195q0 102 -70 178t-276 172q-180 84 -269.5 170t-89.5 225q0 145 111.5 249t314.5 104q177 0 365 -86zM685 1772h104l-199 -262h-116l-195 262h111l147 -195z" />
<glyph unicode="&#x161;" horiz-adv-x="811" d="M680 924v-246h-84v84q0 49 -10 72q-14 35 -68.5 55t-111.5 20q-96 0 -149.5 -42t-53.5 -113q0 -76 54 -118t169 -89q76 -31 115 -50.5t91 -55t75.5 -84t23.5 -111.5q0 -121 -93 -198t-267 -77q-158 0 -291 60v274h94v-98q0 -59 12 -84q20 -39 75.5 -58.5t111.5 -19.5 q31 0 60.5 5t78.5 20.5t79 58.5t30 106.5t-47.5 111.5t-163.5 95q-82 33 -126 54.5t-94.5 56.5t-72 80t-21.5 102q0 104 77 177t237 73q143 0 270 -61zM558 1358h104l-199 -262h-116l-195 262h111l147 -195z" />
<glyph unicode="&#x178;" horiz-adv-x="1323" d="M16 1399h418v-72h-35q-82 0 -82 -33q0 -18 37 -80l322 -550l315 495q66 106 66 137t-84 31h-62v72h396v-72q-76 0 -103.5 -14.5t-68.5 -79.5l-416 -672v-383q0 -70 15.5 -88t92.5 -18h39v-72h-420v72h50q61 0 78.5 17t17.5 89v373l-389 663q-27 45 -41.5 63.5t-42 34 t-68.5 15.5h-35v72zM482 1663q33 0 54.5 -22.5t21.5 -55t-23 -54t-53 -21.5q-33 0 -54.5 22.5t-21.5 53t21.5 54t54.5 23.5zM844 1663q31 0 53.5 -22.5t22.5 -55t-22.5 -54t-53 -21.5t-53.5 21.5t-23 54t21.5 55t54.5 22.5z" />
<glyph unicode="&#x17d;" horiz-adv-x="1236" d="M115 1399h1005v-96l-884 -1207h710q80 0 97.5 19.5t17.5 103.5v115h90v-334h-1065v96l885 1207h-611q-111 0 -133 -15.5t-22 -89.5v-119h-90v320zM771 1772h104l-199 -262h-116l-195 262h111l147 -195z" />
<glyph unicode="&#x17e;" horiz-adv-x="811" d="M57 711v247h701v-81l-590 -797h418q70 0 85 9t15 54v125h92v-268h-741v76l594 801h-406q-51 0 -62 -10.5t-11 -61.5v-94h-95zM558 1358h104l-199 -262h-116l-195 262h111l147 -195z" />
<glyph unicode="&#x192;" horiz-adv-x="1044" d="M309 932h148q59 502 377 502q86 0 176 -45l-45 -156h-78q6 33 6 49q0 33 -22.5 54.5t-65.5 21.5t-77 -17.5t-57.5 -56.5t-40 -71.5t-29.5 -94t-18 -91.5l-16 -95h166l-22 -74h-152l-80 -688q-41 -330 -117 -451q-100 -166 -268 -165q-55 0 -121 32l23 146h80 q-4 -33 -4 -43q0 -59 53 -60q186 0 244 541l80 688h-160z" />
<glyph unicode="&#x2c6;" horiz-adv-x="681" d="M190 1096h-104l199 262h116l195 -262h-111l-147 194z" />
<glyph unicode="&#x2c7;" horiz-adv-x="681" d="M492 1358h104l-199 -262h-116l-195 262h111l147 -195z" />
<glyph unicode="&#x2d8;" horiz-adv-x="681" d="M115 1346h75q8 -51 29 -86q43 -68 127 -68q66 0 102.5 44t43.5 110h75q-6 -152 -100 -216q-53 -35 -123 -34q-96 0 -162.5 66.5t-66.5 183.5z" />
<glyph unicode="&#x2d9;" horiz-adv-x="681" d="M340 1249q33 0 54.5 -22.5t21.5 -55t-22.5 -54t-53.5 -21.5q-33 0 -54.5 22.5t-21.5 53t21.5 54t54.5 23.5z" />
<glyph unicode="&#x2da;" horiz-adv-x="681" d="M342 1448q72 0 124 -52.5t52 -124t-52 -123.5t-124 -52q-74 0 -126 51t-52 125t52 125t126 51zM340 1386q-45 0 -80 -33.5t-35 -80.5q0 -49 34 -83t81 -34t81 34t34 83t-34 81.5t-81 32.5z" />
<glyph unicode="&#x2db;" horiz-adv-x="681" d="M324 18h131q-78 -53 -117 -97t-39 -101q0 -51 35 -81t88 -30q29 0 86 15v-89q-61 -12 -100 -12q-121 0 -168 55.5t-47 126.5q0 117 131 213z" />
<glyph unicode="&#x2dc;" horiz-adv-x="681" d="M532 1264h91q0 -70 -44 -120t-122 -50q-55 0 -142 45q-66 37 -92 37q-57 0 -71 -80h-95q6 59 31 97t58.5 52.5t51 17.5t33.5 3q57 0 127 -41q70 -39 101 -39q61 0 73 78z" />
<glyph unicode="&#x2dd;" horiz-adv-x="681" d="M248 1358h158l-213 -262h-80zM487 1358h158l-213 -262h-80z" />
<glyph unicode="&#x394;" horiz-adv-x="1153" d="M1118 0h-1081l512 1458h76zM963 76l-404 1163l-424 -1163h828z" />
<glyph unicode="&#x2206;" horiz-adv-x="1153" d="M1118 0h-1081l512 1458h76zM963 76l-404 1163l-424 -1163h828z" />
<glyph unicode="&#x3a9;" horiz-adv-x="1363" d="M1276 0h-459v215q152 74 229.5 241t77.5 343q0 262 -111.5 429t-326.5 167q-219 0 -332.5 -166t-113.5 -432q0 -186 87 -359.5t234 -228.5v-209h-471v252h41q0 -80 20.5 -114t96.5 -34h246v64q-164 66 -274.5 238t-110.5 385q0 317 160.5 492t416.5 175q260 0 417 -188.5 t157 -458.5q0 -117 -37 -236.5t-125 -233.5t-213 -169v-68h233q74 0 94.5 34t20.5 114h43v-252z" />
<glyph unicode="&#x3c0;" horiz-adv-x="929" d="M877 170q-18 -88 -56.5 -141.5t-91.5 -53.5q-66 0 -100.5 63.5t-34.5 252.5v583h-232v-432q0 -293 -61 -393q-47 -74 -121 -74q-23 0 -40 16.5t-17 37.5q0 51 67 71q66 16 86.5 109.5t20.5 275.5v389h-57q-113 0 -138 -139l-41 10q4 115 55.5 178.5t147.5 63.5h592v-113 h-194v-536q0 -143 22 -205q20 -55 66 -55q57 0 96 115z" />
<glyph unicode="&#x2000;" horiz-adv-x="929" />
<glyph unicode="&#x2001;" horiz-adv-x="1861" />
<glyph unicode="&#x2002;" horiz-adv-x="929" />
<glyph unicode="&#x2003;" horiz-adv-x="1861" />
<glyph unicode="&#x2004;" horiz-adv-x="620" />
<glyph unicode="&#x2005;" horiz-adv-x="464" />
<glyph unicode="&#x2006;" horiz-adv-x="309" />
<glyph unicode="&#x2007;" horiz-adv-x="309" />
<glyph unicode="&#x2008;" horiz-adv-x="231" />
<glyph unicode="&#x2009;" horiz-adv-x="370" />
<glyph unicode="&#x200a;" horiz-adv-x="102" />
<glyph unicode="&#x2010;" horiz-adv-x="641" d="M70 530h501v-114h-501v114z" />
<glyph unicode="&#x2011;" horiz-adv-x="641" d="M70 530h501v-114h-501v114z" />
<glyph unicode="&#x2012;" horiz-adv-x="641" d="M70 530h501v-114h-501v114z" />
<glyph unicode="&#x2013;" d="M-12 561h1048v-98h-1048v98z" />
<glyph unicode="&#x2014;" horiz-adv-x="2048" d="M-12 561h2072v-98h-2072v98z" />
<glyph unicode="&#x2018;" horiz-adv-x="425" d="M319 1434v-54q-35 -14 -55 -25.5t-47 -49t-31 -91.5q63 8 91 -24.5t28 -67.5q0 -41 -26.5 -65.5t-63.5 -24.5q-49 0 -79 41t-30 103q0 80 51 154.5t162 103.5z" />
<glyph unicode="&#x2019;" horiz-adv-x="425" d="M106 1032v53q33 12 54.5 24.5t47 50.5t32.5 91q-63 -8 -91 25t-28 67q0 41 26.5 66t63.5 25q49 0 78.5 -41t29.5 -103q0 -80 -51 -154.5t-162 -103.5z" />
<glyph unicode="&#x201a;" horiz-adv-x="425" d="M109 -236l-3 54q35 14 55.5 25.5t47.5 49t31 91.5q-63 -8 -90 24.5t-27 67.5q0 41 25.5 65.5t62.5 24.5q49 0 78.5 -41t29.5 -102q0 -80 -49.5 -155t-160.5 -104z" />
<glyph unicode="&#x201c;" horiz-adv-x="768" d="M336 1434v-54q-35 -14 -55.5 -25.5t-47 -49t-30.5 -91.5q63 8 91 -24.5t28 -67.5q0 -41 -27 -65.5t-64 -24.5q-49 0 -78.5 41t-29.5 103q0 80 51 154.5t162 103.5zM645 1434v-54q-33 -12 -54.5 -24.5t-47 -50t-31.5 -91.5q63 8 91 -24.5t28 -67.5q0 -41 -26.5 -65.5 t-63.5 -24.5q-49 0 -79 41t-30 103q0 80 51 154.5t162 103.5z" />
<glyph unicode="&#x201d;" horiz-adv-x="768" d="M432 1032v53q35 14 55.5 25.5t47 49.5t30.5 91q-63 -8 -91 25t-28 67q0 41 27 66t64 25q49 0 78.5 -41t29.5 -103q0 -80 -51 -154.5t-162 -103.5zM123 1032v53q33 12 54.5 24.5t47 50.5t31.5 91q-63 -8 -91 25t-28 67q0 41 26.5 66t63.5 25q49 0 79 -41t30 -103 q0 -80 -51 -154.5t-162 -103.5z" />
<glyph unicode="&#x201e;" horiz-adv-x="768" d="M432 -236v54q35 14 55.5 25.5t47 49t30.5 91.5q-63 -8 -91 24.5t-28 67.5q0 41 27 65.5t64 24.5q49 0 78.5 -41t29.5 -102q0 -80 -51 -155t-162 -104zM123 -236v54q33 12 54.5 24.5t47 50t31.5 91.5q-63 -8 -91 24.5t-28 67.5q0 41 26.5 65.5t63.5 24.5q49 0 79 -41 t30 -102q0 -80 -51 -155t-162 -104z" />
<glyph unicode="&#x2020;" horiz-adv-x="917" d="M59 922l351 -2l-13 405v109h121v-109l-10 -405l350 2v-111h-108l-242 4l10 -1151v-108h-121v108l11 1151l-240 -4h-109v111z" />
<glyph unicode="&#x2021;" horiz-adv-x="874" d="M377 1434h121v-88l-15 -394l236 11h86v-109h-86l-236 8l15 -330v-86l-15 -329l236 10h86v-111h-86l-236 11l15 -385v-86h-121v86l18 385l-239 -11h-86v111h86l239 -10l-18 329v86l18 330l-239 -8h-86v109h86l239 -11l-18 394v88z" />
<glyph unicode="&#x2022;" d="M762 717q0 -104 -74 -177t-176 -73t-176 72.5t-74 177.5q0 102 74 176t176 74t176 -74t74 -176z" />
<glyph unicode="&#x2026;" horiz-adv-x="2048" d="M342 150q39 0 64.5 -26t25.5 -62.5t-26.5 -63.5t-63.5 -27t-63.5 27t-26.5 63.5t26.5 62.5t63.5 26zM1024 150q37 0 63.5 -26t26.5 -62.5t-26.5 -63.5t-63.5 -27t-63.5 27t-26.5 63.5t26.5 62.5t63.5 26zM1706 150q39 0 64.5 -26t25.5 -62.5t-25.5 -63.5t-64.5 -27 q-37 0 -63.5 26t-26.5 64q0 37 26.5 63t63.5 26z" />
<glyph unicode="&#x202f;" horiz-adv-x="370" />
<glyph unicode="&#x2030;" horiz-adv-x="2134" d="M158 1061q0 -68 5 -120t20.5 -104.5t49 -80t82.5 -27.5q51 0 85 26.5t49.5 79t20.5 103.5t5 123q0 307 -158 307q-159 0 -159 -307zM326 1434q256 0 256 -377q0 -391 -271 -391q-258 0 -258 376q0 55 4 98.5t19.5 101.5t43 97t81 67t125.5 28zM1153 1434h92l-891 -1471 h-92zM1198 752q256 0 256 -375q0 -391 -270 -391q-258 0 -258 374q0 55 4 98.5t19.5 101.5t43 97t80.5 67t125 28zM1030 381q0 -70 5 -121t20.5 -103.5t49.5 -80t83 -27.5q51 0 85 26.5t49 78t20.5 101.5t5.5 124q0 309 -158 309q-160 0 -160 -307zM1825 752q256 0 256 -375 q0 -391 -271 -391q-258 0 -258 374q0 55 4.5 98.5t19.5 101.5t43 97t81 67t125 28zM1657 381q0 -70 5 -121t20.5 -103.5t49 -80t83.5 -27.5q51 0 84.5 26.5t49 78t20.5 101.5t5 124q0 309 -157 309q-160 0 -160 -307z" />
<glyph unicode="&#x2039;" horiz-adv-x="512" d="M317 864h107l-236 -389l236 -381h-107l-258 381z" />
<glyph unicode="&#x203a;" horiz-adv-x="512" d="M88 864h107l258 -381l-258 -389h-107l236 389z" />
<glyph unicode="&#x2044;" horiz-adv-x="362" d="M582 1434h92l-891 -1471h-94z" />
<glyph unicode="&#x2215;" horiz-adv-x="362" d="M582 1434h92l-891 -1471h-94z" />
<glyph unicode="&#x205f;" horiz-adv-x="464" />
<glyph unicode="&#x20ac;" horiz-adv-x="1073" d="M954 123q-152 -152 -325 -152q-211 0 -323.5 159t-135.5 405h-123v83h117v35q0 31 4 92h-121v84h131q37 238 164 389.5t301 151.5q213 0 311 -80v-217h-90q0 213 -213 213q-121 0 -221 -126t-131 -331h565v-84h-573q-4 -53 -4 -79v-48h577v-83h-571q23 -252 119 -355.5 t221 -103.5q168 0 321 166v-119z" />
<glyph unicode="&#x2113;" horiz-adv-x="800" d="M750 199q-102 -223 -273 -224q-100 0 -160 60q-72 72 -71 225v205q-82 -92 -131 -141l-43 47q111 111 172 194v502q0 180 63.5 285.5t165.5 105.5q86 0 128 -58.5t42 -146.5q0 -203 -156 -467q-82 -139 -116 -178v-358q0 -96 37.5 -147.5t93.5 -51.5q106 0 190 176z M580 1253q0 139 -101 140q-109 0 -108 -260v-410q0 2 27.5 45t43.5 74q138 235 138 411z" />
<glyph unicode="&#x2122;" horiz-adv-x="1921" d="M203 1399h635v-88h-269v-729h-100v729h-266v88zM932 1399h153l207 -654h4l207 654h156v-817h-92v729h-4l-232 -729h-69l-234 729h-4v-729h-92v817z" />
<glyph unicode="&#x2126;" horiz-adv-x="1363" d="M1276 0h-459v215q152 74 229.5 241t77.5 343q0 262 -111.5 429t-326.5 167q-219 0 -332.5 -166t-113.5 -432q0 -186 87 -359.5t234 -228.5v-209h-471v252h41q0 -80 20.5 -114t96.5 -34h246v64q-164 66 -274.5 238t-110.5 385q0 317 160.5 492t416.5 175q260 0 417 -188.5 t157 -458.5q0 -117 -37 -236.5t-125 -233.5t-213 -169v-68h233q74 0 94.5 34t20.5 114h43v-252z" />
<glyph unicode="&#x212e;" horiz-adv-x="1302" d="M1231 584h-901v-422q135 -131 319 -131q285 0 447 274l57 -33q-100 -147 -216 -222t-288 -75q-256 0 -411.5 175.5t-155.5 433.5q0 260 154.5 434t414.5 174q262 0 416 -171t164 -437zM973 641v360q-135 135 -323.5 135.5t-319.5 -130.5v-365h643z" />
<glyph unicode="&#x2202;" horiz-adv-x="964" d="M903 958q0 -301 -100 -559q-35 -90 -72 -158.5t-88 -134t-116.5 -100.5t-141.5 -35q-154 0 -238 121t-84 289q0 240 125 406.5t328 166.5q113 0 190.5 -59t104.5 -129h6q8 147 8 172q0 109 -24.5 199t-91 158.5t-168.5 68.5q-174 0 -305 -162l-35 35q170 229 374 229 q328 0 328 -508zM799 664q-27 86 -93.5 154.5t-173.5 68.5q-141 0 -242.5 -149.5t-101.5 -377.5q0 -154 64.5 -236.5t163.5 -82.5q94 0 177 101.5t130 234.5t76 287z" />
<glyph unicode="&#x220f;" horiz-adv-x="1314" d="M1241 -268h-420v43h39q68 0 88.5 35.5t20.5 111.5v1444h-625v-1444q0 -49 5 -76.5t31 -49t73 -21.5h36v-43h-415v43h37q68 0 88 36.5t20 110.5v1321q0 78 -19.5 113t-88.5 35h-37v43h1167v-43h-35q-70 0 -90 -35t-20 -113v-1321q0 -76 20.5 -111.5t87.5 -35.5h37v-43z " />
<glyph unicode="&#x2211;" horiz-adv-x="1075" d="M1036 4l-26 -272h-994l-2 49l523 811l-504 797v45h944l16 -248h-39q-8 100 -36.5 139t-118.5 39h-615l463 -719l-516 -801h692q94 0 126 33t48 135z" />
<glyph unicode="&#x2212;" horiz-adv-x="1366" d="M145 713h1076v-109h-1076v109z" />
<glyph unicode="&#x221a;" horiz-adv-x="866" d="M618 1491l-159 -1516h-90l-213 707l-109 -70l-33 54l203 131l195 -652h4l141 1346h61z" />
<glyph unicode="&#x221e;" horiz-adv-x="1417" d="M1026 281q-195 0 -309 219h-4q-125 -219 -312 -219q-121 0 -199.5 81.5t-78.5 210.5q0 133 75.5 216t196.5 83q195 0 301 -213h2q63 102 136 157.5t186 55.5q117 0 194.5 -81.5t77.5 -210.5t-76.5 -214t-189.5 -85zM1028 799h2q-49 0 -86 -13.5t-68.5 -46t-53 -63.5 t-56.5 -86q-10 -18 -16 -27q104 -209 274 -209q98 0 151.5 65.5t53.5 153.5q0 98 -51.5 162t-149.5 64zM399 799q-96 0 -154.5 -60.5t-58.5 -160.5q0 -102 55.5 -163t149.5 -61q49 0 92 23.5t79 67.5t55.5 75t44.5 78q-37 82 -104 141.5t-159 59.5z" />
<glyph unicode="&#x222b;" horiz-adv-x="503" d="M469 1442q0 -53 -41 -53q-20 0 -49 20q-39 25 -53 25q-47 0 -50 -99q-2 -33 6.5 -131t10.5 -182q14 -287 14 -508q0 -279 -8 -444q-12 -262 -35 -353q-20 -76 -50 -112.5t-87 -36.5q-41 0 -74 23.5t-33 62.5q0 57 52 57q18 0 43 -24q16 -20 43 -21q51 0 53 166 q2 10 -10 229q-12 197 -13 451q0 201 7 428q8 350 24 444q27 147 133 148q49 0 83 -27.5t34 -62.5z" />
<glyph unicode="&#x2248;" horiz-adv-x="1366" d="M1266 907q-98 -236 -322 -235q-121 0 -307 80q-117 53 -219 53q-90 0 -143.5 -35t-100.5 -115l-74 37q94 236 328 236q121 0 285 -74q141 -61 245 -61q143 0 234 151zM1266 500q-98 -233 -322 -234q-129 0 -307 80q-125 53 -219 53q-90 0 -143.5 -35.5t-100.5 -115.5 l-74 39q96 233 328 233q117 0 285 -71q133 -61 245 -62q145 0 234 150z" />
<glyph unicode="&#x2260;" horiz-adv-x="1363" d="M1233 344h-647l-183 -305h-118l180 305h-332v109h399l170 286h-569v109h635l193 321h120l-192 -321h344v-109h-410l-172 -286h582v-109z" />
<glyph unicode="&#x2264;" horiz-adv-x="1366" d="M1233 0h-1100v109h1100v-109zM1233 225l-1100 445v98l1100 449v-121l-940 -375l940 -377v-119z" />
<glyph unicode="&#x2265;" horiz-adv-x="1366" d="M1233 0h-1100v109h1100v-109zM1233 670l-1100 -447v119l940 377l-940 377v118l1100 -446v-98z" />
<glyph unicode="&#x25ca;" horiz-adv-x="817" d="M780 715l-331 -740h-89l-319 740l319 743h91zM696 715l-290 651l-283 -651l283 -649z" />
<glyph unicode="&#xe000;" horiz-adv-x="960" d="M0 960h960v-960h-960v960z" />
<glyph horiz-adv-x="641" d="M70 530h501v-114h-501v114z" />
<glyph horiz-adv-x="1363" d="M1276 0h-459v215q152 74 229.5 241t77.5 343q0 262 -111.5 429t-326.5 167q-219 0 -332.5 -166t-113.5 -432q0 -186 87 -359.5t234 -228.5v-209h-471v252h41q0 -80 20.5 -114t96.5 -34h246v64q-164 66 -274.5 238t-110.5 385q0 317 160.5 492t416.5 175q260 0 417 -188.5 t157 -458.5q0 -117 -37 -236.5t-125 -233.5t-213 -169v-68h233q74 0 94.5 34t20.5 114h43v-252z" />
<glyph d="M127 -434v1392h113v-337q0 -215 14 -296t70 -149q78 -94 196 -94q158 0 238 156q37 72 37 380v340h104v-958h-104v119h-4q-23 -31 -37.5 -47.5t-48 -43t-82 -40t-109.5 -13.5q-25 0 -46.5 3.5l-39.5 6.5t-36.5 12t-31 14t-28 17.5t-23.5 17.5t-21.5 19.5t-17.5 18.5 t-16 18l-14 17v-553h-113z" />
</font>
</defs>
</svg>
